<svg width="1000" height="295" viewBox="0 0 1000 295" fill="none" xmlns="http://www.w3.org/2000/svg">
<g clip-path="url(#clip0_849:123)">
<path d="M406.147 292.076C394.142 292.076 384.781 288.707 378.065 281.642C370.436 274.156 366.364 262.646 366.2 247.978C366.217 239.736 367.191 231.525 369.102 223.508L407.036 37.874L461.656 29.8497C461.656 29.8497 421.873 220.326 420.914 225.122C417.778 240.983 419.884 249.171 423.137 252.821C441.226 273.033 483.42 239.696 483.326 222.525C484.918 236.304 460.158 292.334 406.147 292.076Z" fill="#1D1E46"/>
<path d="M146.948 291.843C121.206 283.374 117.579 256.377 122.634 233.474C123.851 225.778 126.144 216.326 128.601 204.606C131.199 192.417 133.282 182.943 134.545 176.205C135.73 170.126 136.427 163.961 136.628 157.771C136.511 145.138 131.948 138.447 123.078 138.517C116.877 138.517 100.87 143.711 94.2709 173.608C94.2709 173.608 90.8776 194.266 79.8319 241.452C65.2526 317.413 30.1499 292.405 0.0317383 281.058C8.80742 280.45 19.3148 268.496 24.7909 248.494C43.5123 180.112 69.2543 38.5299 69.2543 38.5299L125.793 28.7745L104.404 125.182C110.642 117.689 118.543 111.754 127.478 107.847C133.929 105.407 140.754 104.101 147.65 103.987C160.217 103.87 170.116 107.005 177.792 113.649C185.491 120.784 189.493 131.639 189.703 146.05C189.357 157.423 187.828 168.728 185.14 179.785C184.204 183.785 182.987 189.727 181.302 197.892C177.769 211.39 169.414 243.651 181.489 257.126C196.935 274.391 221.904 256.705 229.58 228.024C215.422 290.907 167.776 298.674 146.948 291.843Z" fill="#1D1E46"/>
<path d="M531.885 290.906C491.915 289.806 473.568 261.546 473.568 232.748C473.679 224.26 474.351 215.788 475.58 207.388C476.869 197.857 479.015 188.461 481.992 179.315C489.364 156.599 499.427 138.726 512.649 125.275C520.254 117.331 529.4 111.023 539.528 106.735C549.656 102.447 560.552 100.269 571.551 100.336C586.224 100.196 597.293 103.658 604.548 110.7C610.313 116.967 613.41 125.232 613.183 133.743C613.183 142.633 611.545 149.3 607.59 154.237C605.974 156.345 603.895 158.054 601.513 159.23C599.131 160.407 596.51 161.019 593.853 161.021C589.205 160.938 584.695 159.427 580.935 156.693C583.708 149.748 585.153 142.344 585.194 134.866C585.396 130.978 584.434 127.117 582.433 123.777C581.643 122.492 580.518 121.446 579.177 120.754C577.837 120.061 576.333 119.748 574.827 119.847C567.807 119.847 560.225 126.21 552.338 139.147C543.938 152.674 537.301 167.218 532.587 182.427C526.713 200.768 519.459 233.496 534.225 251.042C555.053 275.793 593.642 258.458 605.648 238.222C603.729 245.708 585.077 292.356 531.885 290.906Z" fill="#1D1E46"/>
<path d="M699.208 277.877C691.673 281.059 665.977 289.738 657.529 289.808C645.532 289.902 636.171 286.424 629.447 279.375C621.818 271.888 617.746 260.378 617.606 245.71C617.569 237.471 618.511 229.257 620.414 221.24L644.752 108.69L698.038 101.906L670.892 227.907C661.531 270.438 699.208 277.877 699.208 277.877Z" fill="#1D1E46"/>
<path d="M950.38 294.651C935.285 294.651 923.678 290.44 916.494 282.065C909.793 273.984 906.229 263.76 906.454 253.266C906.485 246.668 907.088 240.085 908.256 233.592C909.52 226.035 911.626 211.952 914.2 200.372C916.751 188.347 918.881 178.989 920.168 172.299C921.381 166.287 922.07 160.182 922.227 154.051C922.227 141.605 917.547 134.985 908.724 135.078C902.5 135.078 896.766 138.283 891.477 144.998C886.209 152.406 882.361 160.727 880.127 169.538L855.836 288.404L802.504 288.872L828.503 160.648C829.241 157.587 829.51 154.432 829.299 151.291C829.388 147.32 828.589 143.379 826.959 139.757C826.012 138.25 824.691 137.014 823.125 136.169C821.558 135.324 819.799 134.9 818.019 134.938C810.998 134.938 805.171 138.611 799.883 145.325C794.618 152.733 790.777 161.054 788.556 169.866L764.242 288.732L695.651 289.247C700.016 289.345 704.269 287.866 707.631 285.081C710.993 282.296 713.237 278.393 713.951 274.087L747.299 108.994L801.755 103.098L797.917 122.235C804.307 114.711 812.304 108.715 821.319 104.689C828.083 101.944 835.314 100.53 842.614 100.525C852.841 100.525 861.336 102.584 867.561 107.403C874.277 112.69 878.793 121.089 881.11 131.733C887.732 120.661 897.161 111.534 908.444 105.274C915.917 101.661 924.105 99.767 932.407 99.7296C944.857 99.7296 954.662 102.654 961.823 109.251C969.452 116.269 973.524 126.914 973.664 141.138C973.43 152.379 972.034 163.566 969.499 174.521C968.235 180.3 960.138 219.321 957.985 229.123C949.397 268.894 964.561 277.316 974.203 277.643C986.559 278.041 999.945 265.946 999.945 265.946C985.482 285.223 967.65 294.651 950.38 294.651Z" fill="#1D1E46"/>
<path d="M309.708 265.22C291.946 265.361 265.97 255.371 272.92 216.28C283.907 215.621 294.705 213.122 304.864 208.887C314.855 204.665 324.112 198.885 332.291 191.762C340.222 184.925 346.686 176.554 351.293 167.152C355.674 157.826 357.867 147.625 357.705 137.324C357.705 126.656 354.874 118.608 349.491 112.947C342.752 105.929 331.612 102.443 316.495 102.583C292.952 102.794 273.014 110.958 257.148 127.545C250.132 134.991 244.028 143.244 238.964 152.132C233.839 161.533 229.609 171.394 226.328 181.586C223.34 190.73 221.186 200.126 219.892 209.659C218.681 218.052 218.017 226.515 217.903 234.995C217.903 277.783 257.054 292.194 276.197 293.153C339.241 296.335 368.962 244.75 376.942 223.836C377.035 223.812 350.451 265.548 309.708 265.22ZM281.088 170.427C283.77 161.938 287.265 153.727 291.525 145.909C294.848 139.335 299.148 133.301 304.279 128.013C309.123 123.521 313.64 121.275 317.992 121.229C319.443 121.06 320.911 121.348 322.19 122.052C323.469 122.757 324.497 123.843 325.13 125.159C326.826 128.601 327.631 132.414 327.47 136.248C327.614 143.884 326.172 151.468 323.234 158.519C320.25 165.603 316.262 172.221 311.393 178.17C306.609 183.873 300.769 188.599 294.193 192.09C287.985 195.341 281.206 197.359 274.231 198.032C276.047 188.72 278.336 179.506 281.088 170.427Z" fill="#1D1E46"/>
<path d="M686.641 67.1884C705.201 67.1884 720.246 52.1477 720.246 33.5942C720.246 15.0406 705.201 0 686.641 0C668.082 0 653.036 15.0406 653.036 33.5942C653.036 52.1477 668.082 67.1884 686.641 67.1884Z" fill="#815AF0"/>
</g>
<defs>
<clipPath id="clip0_849:123">
<rect width="1000" height="294.651" fill="white"/>
</clipPath>
</defs>
</svg>
