<svg width="236" height="66" viewBox="0 0 236 66" fill="none" xmlns="http://www.w3.org/2000/svg">
<rect x="2.5" y="2.5" width="231" height="61" rx="30.5" fill="#FF4D6F" stroke="white" stroke-width="5"/>
<path d="M65.98 25.48C65.98 24.14 66.61 23.47 67.87 23.47H68.47C69.77 23.47 70.42 24.14 70.42 25.48V41.11C70.42 42.45 69.77 43.12 68.47 43.12H67.87C67.25 43.12 66.78 42.95 66.46 42.61C66.14 42.27 65.98 41.77 65.98 41.11V25.48ZM82.9382 28.03C84.7582 28.03 86.1182 28.59 87.0182 29.71C87.9182 30.83 88.3682 32.28 88.3682 34.06V41.11C88.3682 42.45 87.7382 43.12 86.4782 43.12H86.0282C85.4282 43.12 84.9582 42.97 84.6182 42.67C84.2982 42.37 84.1382 41.85 84.1382 41.11V34.72C84.1382 33.74 83.8982 32.97 83.4182 32.41C82.9582 31.85 82.2982 31.57 81.4382 31.57C80.7182 31.57 80.0782 31.75 79.5182 32.11C78.9582 32.45 78.5282 32.91 78.2282 33.49V41.11C78.2282 42.45 77.6082 43.12 76.3682 43.12H75.9182C75.2982 43.12 74.8182 42.97 74.4782 42.67C74.1582 42.37 73.9982 41.85 73.9982 41.11V28.69C73.9982 28.61 74.1682 28.51 74.5082 28.39C74.8482 28.27 75.2082 28.21 75.5882 28.21C76.2282 28.21 76.7782 28.4 77.2382 28.78C77.6982 29.16 77.9882 29.79 78.1082 30.67C79.2882 28.91 80.8982 28.03 82.9382 28.03ZM97.4005 43.42C95.8005 43.42 94.6105 43 93.8305 42.16C93.0705 41.32 92.6905 40.06 92.6905 38.38V31.66H91.9405C90.7805 31.66 90.2005 31.16 90.2005 30.16V29.92C90.2005 28.88 90.7705 28.36 91.9105 28.36H92.6905V26.5C92.6905 25.14 93.3205 24.46 94.5805 24.46H94.9705C95.5705 24.46 96.0305 24.62 96.3505 24.94C96.6705 25.24 96.8305 25.76 96.8305 26.5V28.36H99.3805C100.521 28.36 101.091 28.85 101.091 29.83V30.1C101.091 31.14 100.511 31.66 99.3505 31.66H96.7705V37.9C96.7705 38.64 96.8905 39.19 97.1305 39.55C97.3905 39.89 97.8105 40.06 98.3905 40.06C99.1505 40.06 99.7605 39.73 100.221 39.07C100.281 39.05 100.401 39.11 100.581 39.25C100.761 39.39 100.921 39.59 101.061 39.85C101.201 40.09 101.271 40.38 101.271 40.72C101.271 41.34 101.031 41.88 100.551 42.34C99.8305 43.06 98.7805 43.42 97.4005 43.42ZM102.457 35.8C102.457 34.32 102.777 32.99 103.417 31.81C104.077 30.63 104.987 29.71 106.147 29.05C107.307 28.37 108.607 28.03 110.047 28.03C111.487 28.03 112.757 28.34 113.857 28.96C114.957 29.58 115.807 30.45 116.407 31.57C117.027 32.67 117.337 33.93 117.337 35.35V35.62C117.317 36 117.237 36.28 117.097 36.46C116.957 36.64 116.697 36.73 116.317 36.73H106.177L106.267 37.21C106.487 38.17 106.967 38.94 107.707 39.52C108.467 40.08 109.387 40.36 110.467 40.36C111.487 40.36 112.337 40.17 113.017 39.79C113.697 39.39 114.217 38.87 114.577 38.23C114.597 38.19 114.787 38.22 115.147 38.32C115.527 38.4 115.867 38.58 116.167 38.86C116.487 39.14 116.647 39.53 116.647 40.03C116.647 40.43 116.507 40.83 116.227 41.23C115.947 41.63 115.547 41.99 115.027 42.31C113.807 43.05 112.247 43.42 110.347 43.42C108.767 43.42 107.377 43.11 106.177 42.49C104.997 41.87 104.077 40.99 103.417 39.85C102.777 38.69 102.457 37.34 102.457 35.8ZM113.437 34.42C113.377 33.36 113.037 32.52 112.417 31.9C111.817 31.26 111.017 30.94 110.017 30.94C109.017 30.94 108.167 31.27 107.467 31.93C106.787 32.57 106.377 33.4 106.237 34.42H113.437ZM127.441 28.03C128.281 28.03 128.941 28.25 129.421 28.69C129.901 29.13 130.141 29.73 130.141 30.49C130.141 30.99 130.041 31.41 129.841 31.75C129.641 32.09 129.421 32.35 129.181 32.53C128.961 32.69 128.831 32.75 128.791 32.71C128.231 32.23 127.591 31.99 126.871 31.99C125.871 31.99 125.131 32.4 124.651 33.22C124.171 34.04 123.931 35.21 123.931 36.73V41.11C123.931 42.45 123.311 43.12 122.071 43.12H121.621C121.001 43.12 120.521 42.97 120.181 42.67C119.861 42.37 119.701 41.85 119.701 41.11V28.69C119.701 28.61 119.861 28.51 120.181 28.39C120.521 28.27 120.891 28.21 121.291 28.21C121.791 28.21 122.241 28.34 122.641 28.6C123.061 28.84 123.381 29.24 123.601 29.8C123.661 30 123.731 30.34 123.811 30.82C124.111 29.94 124.561 29.26 125.161 28.78C125.781 28.28 126.541 28.03 127.441 28.03ZM141.034 28.03C142.854 28.03 144.214 28.59 145.114 29.71C146.014 30.83 146.464 32.28 146.464 34.06V41.11C146.464 42.45 145.834 43.12 144.574 43.12H144.124C143.524 43.12 143.054 42.97 142.714 42.67C142.394 42.37 142.234 41.85 142.234 41.11V34.72C142.234 33.74 141.994 32.97 141.514 32.41C141.054 31.85 140.394 31.57 139.534 31.57C138.814 31.57 138.174 31.75 137.614 32.11C137.054 32.45 136.624 32.91 136.324 33.49V41.11C136.324 42.45 135.704 43.12 134.464 43.12H134.014C133.394 43.12 132.914 42.97 132.574 42.67C132.254 42.37 132.094 41.85 132.094 41.11V28.69C132.094 28.61 132.264 28.51 132.604 28.39C132.944 28.27 133.304 28.21 133.684 28.21C134.324 28.21 134.874 28.4 135.334 28.78C135.794 29.16 136.084 29.79 136.204 30.67C137.384 28.91 138.994 28.03 141.034 28.03ZM148.746 39.13C148.746 37.51 149.526 36.31 151.086 35.53C152.646 34.73 154.996 34.31 158.136 34.27H158.616C158.616 34.07 158.606 33.93 158.586 33.85C158.566 32.99 158.296 32.34 157.776 31.9C157.276 31.44 156.556 31.21 155.616 31.21C154.676 31.21 153.906 31.41 153.306 31.81C152.726 32.21 152.296 32.72 152.016 33.34L151.626 33.37C151.066 33.37 150.536 33.25 150.036 33.01C149.536 32.75 149.286 32.3 149.286 31.66C149.286 30.94 149.586 30.3 150.186 29.74C150.706 29.2 151.446 28.78 152.406 28.48C153.366 28.18 154.526 28.03 155.886 28.03C158.186 28.03 159.906 28.55 161.046 29.59C162.206 30.61 162.786 32.11 162.786 34.09V42.73C162.786 42.83 162.616 42.93 162.276 43.03C161.956 43.15 161.596 43.21 161.196 43.21C160.096 43.21 159.356 42.74 158.976 41.8C158.876 41.48 158.796 41.15 158.736 40.81C158.216 41.61 157.516 42.23 156.636 42.67C155.756 43.11 154.766 43.33 153.666 43.33C152.146 43.33 150.946 42.95 150.066 42.19C149.186 41.43 148.746 40.41 148.746 39.13ZM158.616 36.4H157.806C156.086 36.46 154.806 36.68 153.966 37.06C153.126 37.42 152.706 38 152.706 38.8C152.706 39.36 152.906 39.8 153.306 40.12C153.726 40.44 154.286 40.6 154.986 40.6C156.046 40.6 156.906 40.31 157.566 39.73C158.246 39.13 158.596 38.37 158.616 37.45V36.4ZM167.825 43.12C167.225 43.12 166.755 42.97 166.415 42.67C166.075 42.37 165.905 41.85 165.905 41.11V22.63C165.905 22.55 166.075 22.45 166.415 22.33C166.755 22.21 167.115 22.15 167.495 22.15C168.255 22.15 168.885 22.41 169.385 22.93C169.885 23.43 170.135 24.3 170.135 25.54V41.11C170.135 42.45 169.515 43.12 168.275 43.12H167.825Z" fill="white"/>
</svg>
