<svg width="236" height="66" viewBox="0 0 236 66" fill="none" xmlns="http://www.w3.org/2000/svg">
<rect x="2.5" y="2.5" width="231" height="61" rx="30.5" fill="#FF4D6F" stroke="white" stroke-width="5"/>
<path d="M59.87 27.46H55.49C54.83 27.46 54.32 27.3 53.96 26.98C53.62 26.66 53.45 26.19 53.45 25.57V25.42C53.45 24.82 53.62 24.37 53.96 24.07C54.32 23.75 54.83 23.59 55.49 23.59H68.6C69.96 23.59 70.64 24.2 70.64 25.42V25.57C70.64 26.83 69.96 27.46 68.6 27.46H64.31V41.11C64.31 41.77 64.14 42.27 63.8 42.61C63.46 42.95 62.97 43.12 62.33 43.12H61.7C60.48 43.12 59.87 42.45 59.87 41.11V27.46ZM69.4845 35.8C69.4845 34.32 69.8045 32.99 70.4445 31.81C71.1045 30.63 72.0145 29.71 73.1745 29.05C74.3345 28.37 75.6345 28.03 77.0745 28.03C78.5145 28.03 79.7845 28.34 80.8845 28.96C81.9845 29.58 82.8345 30.45 83.4345 31.57C84.0545 32.67 84.3645 33.93 84.3645 35.35V35.62C84.3445 36 84.2645 36.28 84.1245 36.46C83.9845 36.64 83.7245 36.73 83.3445 36.73H73.2045L73.2945 37.21C73.5145 38.17 73.9945 38.94 74.7345 39.52C75.4945 40.08 76.4145 40.36 77.4945 40.36C78.5145 40.36 79.3645 40.17 80.0445 39.79C80.7245 39.39 81.2445 38.87 81.6045 38.23C81.6245 38.19 81.8145 38.22 82.1745 38.32C82.5545 38.4 82.8945 38.58 83.1945 38.86C83.5145 39.14 83.6745 39.53 83.6745 40.03C83.6745 40.43 83.5345 40.83 83.2545 41.23C82.9745 41.63 82.5745 41.99 82.0545 42.31C80.8345 43.05 79.2745 43.42 77.3745 43.42C75.7945 43.42 74.4045 43.11 73.2045 42.49C72.0245 41.87 71.1045 40.99 70.4445 39.85C69.8045 38.69 69.4845 37.34 69.4845 35.8ZM80.4645 34.42C80.4045 33.36 80.0645 32.52 79.4445 31.9C78.8445 31.26 78.0445 30.94 77.0445 30.94C76.0445 30.94 75.1945 31.27 74.4945 31.93C73.8145 32.57 73.4045 33.4 73.2645 34.42H80.4645ZM85.9787 35.68C85.9787 34.22 86.3087 32.91 86.9687 31.75C87.6287 30.59 88.5387 29.68 89.6987 29.02C90.8587 28.36 92.1687 28.03 93.6287 28.03C95.6287 28.03 97.2287 28.52 98.4287 29.5C98.9087 29.88 99.2687 30.3 99.5087 30.76C99.7487 31.22 99.8687 31.64 99.8687 32.02C99.8687 32.54 99.6887 32.95 99.3287 33.25C98.9887 33.55 98.6087 33.75 98.1887 33.85C97.7687 33.95 97.5387 33.96 97.4987 33.88C96.8387 32.26 95.6087 31.45 93.8087 31.45C92.6687 31.45 91.7187 31.85 90.9587 32.65C90.2187 33.45 89.8487 34.46 89.8487 35.68C89.8487 36.94 90.2187 37.98 90.9587 38.8C91.6987 39.6 92.6487 40 93.8087 40C95.6087 40 96.8387 39.19 97.4987 37.57C97.5387 37.49 97.7687 37.5 98.1887 37.6C98.6087 37.68 98.9887 37.88 99.3287 38.2C99.6887 38.5 99.8687 38.92 99.8687 39.46C99.8687 39.84 99.7387 40.26 99.4787 40.72C99.2387 41.16 98.8787 41.56 98.3987 41.92C97.8587 42.38 97.1887 42.74 96.3887 43C95.5887 43.28 94.6687 43.42 93.6287 43.42C92.1487 43.42 90.8287 43.09 89.6687 42.43C88.5087 41.77 87.5987 40.86 86.9387 39.7C86.2987 38.52 85.9787 37.18 85.9787 35.68ZM111.049 28.03C112.869 28.03 114.229 28.61 115.129 29.77C116.049 30.91 116.509 32.39 116.509 34.21V41.11C116.509 42.45 115.879 43.12 114.619 43.12H114.169C113.569 43.12 113.099 42.97 112.759 42.67C112.439 42.37 112.279 41.85 112.279 41.11V34.78C112.279 33.78 112.039 33 111.559 32.44C111.079 31.86 110.419 31.57 109.579 31.57C108.579 31.57 107.789 31.88 107.209 32.5C106.649 33.1 106.369 33.93 106.369 34.99V41.11C106.369 42.45 105.739 43.12 104.479 43.12H104.029C103.429 43.12 102.959 42.97 102.619 42.67C102.299 42.37 102.139 41.85 102.139 41.11V22.63C102.139 22.55 102.309 22.45 102.649 22.33C102.989 22.21 103.349 22.15 103.729 22.15C104.469 22.15 105.089 22.41 105.589 22.93C106.109 23.43 106.369 24.3 106.369 25.54V30.67C107.489 28.91 109.049 28.03 111.049 28.03ZM128.481 28.03C130.301 28.03 131.661 28.59 132.561 29.71C133.461 30.83 133.911 32.28 133.911 34.06V41.11C133.911 42.45 133.281 43.12 132.021 43.12H131.571C130.971 43.12 130.501 42.97 130.161 42.67C129.841 42.37 129.681 41.85 129.681 41.11V34.72C129.681 33.74 129.441 32.97 128.961 32.41C128.501 31.85 127.841 31.57 126.981 31.57C126.261 31.57 125.621 31.75 125.061 32.11C124.501 32.45 124.071 32.91 123.771 33.49V41.11C123.771 42.45 123.151 43.12 121.911 43.12H121.461C120.841 43.12 120.361 42.97 120.021 42.67C119.701 42.37 119.541 41.85 119.541 41.11V28.69C119.541 28.61 119.711 28.51 120.051 28.39C120.391 28.27 120.751 28.21 121.131 28.21C121.771 28.21 122.321 28.4 122.781 28.78C123.241 29.16 123.531 29.79 123.651 30.67C124.831 28.91 126.441 28.03 128.481 28.03ZM136.794 23.86C136.794 23.18 137.004 22.65 137.424 22.27C137.844 21.87 138.424 21.67 139.164 21.67C139.904 21.67 140.484 21.87 140.904 22.27C141.324 22.65 141.534 23.18 141.534 23.86C141.534 24.54 141.324 25.08 140.904 25.48C140.484 25.86 139.904 26.05 139.164 26.05C138.444 26.05 137.864 25.86 137.424 25.48C137.004 25.08 136.794 24.54 136.794 23.86ZM137.034 30.25C137.034 28.89 137.664 28.21 138.924 28.21H139.374C139.974 28.21 140.434 28.37 140.754 28.69C141.094 28.99 141.264 29.51 141.264 30.25V41.11C141.264 42.45 140.634 43.12 139.374 43.12H138.954C138.334 43.12 137.854 42.97 137.514 42.67C137.194 42.37 137.034 41.85 137.034 41.11V30.25ZM143.781 35.68C143.781 34.22 144.111 32.91 144.771 31.75C145.431 30.59 146.341 29.68 147.501 29.02C148.661 28.36 149.971 28.03 151.431 28.03C153.431 28.03 155.031 28.52 156.231 29.5C156.711 29.88 157.071 30.3 157.311 30.76C157.551 31.22 157.671 31.64 157.671 32.02C157.671 32.54 157.491 32.95 157.131 33.25C156.791 33.55 156.411 33.75 155.991 33.85C155.571 33.95 155.341 33.96 155.301 33.88C154.641 32.26 153.411 31.45 151.611 31.45C150.471 31.45 149.521 31.85 148.761 32.65C148.021 33.45 147.651 34.46 147.651 35.68C147.651 36.94 148.021 37.98 148.761 38.8C149.501 39.6 150.451 40 151.611 40C153.411 40 154.641 39.19 155.301 37.57C155.341 37.49 155.571 37.5 155.991 37.6C156.411 37.68 156.791 37.88 157.131 38.2C157.491 38.5 157.671 38.92 157.671 39.46C157.671 39.84 157.541 40.26 157.281 40.72C157.041 41.16 156.681 41.56 156.201 41.92C155.661 42.38 154.991 42.74 154.191 43C153.391 43.28 152.471 43.42 151.431 43.42C149.951 43.42 148.631 43.09 147.471 42.43C146.311 41.77 145.401 40.86 144.741 39.7C144.101 38.52 143.781 37.18 143.781 35.68ZM159.192 39.13C159.192 37.51 159.972 36.31 161.532 35.53C163.092 34.73 165.442 34.31 168.582 34.27H169.062C169.062 34.07 169.052 33.93 169.032 33.85C169.012 32.99 168.742 32.34 168.222 31.9C167.722 31.44 167.002 31.21 166.062 31.21C165.122 31.21 164.352 31.41 163.752 31.81C163.172 32.21 162.742 32.72 162.462 33.34L162.072 33.37C161.512 33.37 160.982 33.25 160.482 33.01C159.982 32.75 159.732 32.3 159.732 31.66C159.732 30.94 160.032 30.3 160.632 29.74C161.152 29.2 161.892 28.78 162.852 28.48C163.812 28.18 164.972 28.03 166.332 28.03C168.632 28.03 170.352 28.55 171.492 29.59C172.652 30.61 173.232 32.11 173.232 34.09V42.73C173.232 42.83 173.062 42.93 172.722 43.03C172.402 43.15 172.042 43.21 171.642 43.21C170.542 43.21 169.802 42.74 169.422 41.8C169.322 41.48 169.242 41.15 169.182 40.81C168.662 41.61 167.962 42.23 167.082 42.67C166.202 43.11 165.212 43.33 164.112 43.33C162.592 43.33 161.392 42.95 160.512 42.19C159.632 41.43 159.192 40.41 159.192 39.13ZM169.062 36.4H168.252C166.532 36.46 165.252 36.68 164.412 37.06C163.572 37.42 163.152 38 163.152 38.8C163.152 39.36 163.352 39.8 163.752 40.12C164.172 40.44 164.732 40.6 165.432 40.6C166.492 40.6 167.352 40.31 168.012 39.73C168.692 39.13 169.042 38.37 169.062 37.45V36.4ZM178.27 43.12C177.67 43.12 177.2 42.97 176.86 42.67C176.52 42.37 176.35 41.85 176.35 41.11V22.63C176.35 22.55 176.52 22.45 176.86 22.33C177.2 22.21 177.56 22.15 177.94 22.15C178.7 22.15 179.33 22.41 179.83 22.93C180.33 23.43 180.58 24.3 180.58 25.54V41.11C180.58 42.45 179.96 43.12 178.72 43.12H178.27Z" fill="white"/>
</svg>
