<svg width="1440" height="213" viewBox="0 0 1440 213" fill="none" xmlns="http://www.w3.org/2000/svg">
<path d="M0 132.542C27.8333 172.375 122.5 258.042 254.5 174.542C264 168.532 298.786 140.399 292 127.542C273 91.5417 189 181.042 450 180.042C537.5 174.542 586 159 712 121C956 58.9999 1117.5 76.5 1133.5 101.5C1149.5 126.5 1143 138.5 1133.5 140C1124 141.5 1111.5 138 1112.5 121C1113.5 104 1175.5 66.5455 1182 63C1188.5 59.4545 1277 3 1343 3C1440 3 1485 81 1485 81" stroke="#7055FD" stroke-width="6" stroke-linecap="round"/>
</svg>
