<svg width="428" height="1530" viewBox="0 0 428 1530" fill="none" xmlns="http://www.w3.org/2000/svg">
<g clip-path="url(#clip0_1_25)">
<rect width="428" height="1530" fill="white"/>
<path d="M103.254 23.336C107.934 23.336 111.246 19.976 111.246 15.224C111.246 10.472 107.958 7.136 103.278 7.136C98.622 7.136 95.262 10.52 95.262 15.248C95.262 20 98.55 23.336 103.254 23.336ZM103.278 20.192C100.614 20.192 98.79 18.176 98.79 15.224C98.79 12.248 100.59 10.28 103.254 10.28C105.894 10.28 107.742 12.32 107.742 15.248C107.742 18.2 105.918 20.192 103.278 20.192ZM116.535 22.28C116.823 22.976 117.639 23.144 118.431 23.144C119.199 23.144 120.039 22.952 120.327 22.256L124.527 12.152C124.599 11.96 123.735 11.144 122.703 11.144C121.983 11.144 121.287 11.528 120.855 12.896L118.407 19.784L116.055 12.896C115.623 11.528 114.951 11.144 114.135 11.144C113.127 11.144 112.239 11.96 112.287 12.152L116.535 22.28ZM125.141 17.24C125.141 20.96 127.637 23.336 131.453 23.336C133.085 23.336 134.333 22.976 135.197 22.448C136.037 21.944 136.493 21.272 136.493 20.624C136.493 19.28 134.861 19.136 134.837 19.184C134.309 20.12 133.301 20.888 131.549 20.888C129.821 20.888 128.549 19.904 128.189 18.368L128.117 17.984H136.229C136.853 17.984 137.021 17.672 137.045 17.096V16.88C137.045 13.448 134.693 11.024 131.213 11.024C127.685 11.024 125.141 13.664 125.141 17.24ZM133.925 16.136H128.165C128.381 14.504 129.581 13.352 131.189 13.352C132.797 13.352 133.829 14.432 133.925 16.136ZM145.128 11.024C143.664 11.024 142.68 11.864 142.224 13.256C142.176 12.944 142.128 12.656 142.056 12.44C141.672 11.456 140.904 11.168 140.208 11.168C139.512 11.168 138.936 11.432 138.936 11.552V21.488C138.936 22.736 139.56 23.096 140.472 23.096H140.832C141.696 23.096 142.32 22.712 142.32 21.488V17.984C142.32 15.632 143.04 14.192 144.672 14.192C145.32 14.192 145.848 14.456 146.208 14.768C146.256 14.816 147.288 14.336 147.288 12.992C147.288 11.792 146.472 11.024 145.128 11.024ZM156.814 23.336C157.942 23.336 158.806 23 159.334 22.472C159.718 22.112 159.91 21.68 159.91 21.176C159.91 20.288 159.19 19.808 159.07 19.856C158.758 20.312 158.278 20.648 157.606 20.648C156.67 20.648 156.31 20.072 156.31 18.92V13.928H158.374C159.334 13.928 159.766 13.496 159.766 12.68V12.464C159.766 11.696 159.358 11.288 158.398 11.288H156.358V9.8C156.358 8.552 155.758 8.168 154.87 8.168H154.558C153.598 8.168 153.046 8.696 153.046 9.8V11.288H152.422C151.486 11.288 151.054 11.744 151.054 12.536V12.728C151.054 13.496 151.486 13.928 152.446 13.928H153.046V19.304C153.046 21.968 154.246 23.336 156.814 23.336ZM168.728 11.024C166.952 11.024 165.8 11.864 164.984 13.136V9.032C164.984 6.848 163.856 6.32 162.872 6.32C162.176 6.32 161.6 6.608 161.6 6.704V21.488C161.6 22.736 162.224 23.096 163.112 23.096H163.472C164.336 23.096 164.984 22.712 164.984 21.488V16.592C164.984 14.888 165.968 13.856 167.552 13.856C168.896 13.856 169.712 14.816 169.712 16.424V21.488C169.712 22.736 170.336 23.096 171.224 23.096H171.584C172.448 23.096 173.096 22.712 173.096 21.488V15.968C173.096 13.232 171.8 11.024 168.728 11.024ZM174.922 17.24C174.922 20.96 177.418 23.336 181.234 23.336C182.866 23.336 184.114 22.976 184.978 22.448C185.818 21.944 186.274 21.272 186.274 20.624C186.274 19.28 184.642 19.136 184.618 19.184C184.09 20.12 183.082 20.888 181.33 20.888C179.602 20.888 178.33 19.904 177.97 18.368L177.898 17.984H186.01C186.634 17.984 186.802 17.672 186.826 17.096V16.88C186.826 13.448 184.474 11.024 180.994 11.024C177.466 11.024 174.922 13.664 174.922 17.24ZM183.706 16.136H177.946C178.162 14.504 179.362 13.352 180.97 13.352C182.578 13.352 183.61 14.432 183.706 16.136ZM192.195 17.144C192.195 20.792 194.715 23.336 198.315 23.336C200.067 23.336 201.339 22.808 202.131 22.136C202.947 21.512 203.307 20.72 203.307 20.168C203.307 18.704 201.483 18.512 201.411 18.656C200.955 19.784 200.067 20.6 198.459 20.6C196.611 20.6 195.291 19.16 195.291 17.144C195.291 15.176 196.635 13.76 198.459 13.76C200.115 13.76 200.955 14.576 201.411 15.704C201.483 15.848 203.307 15.584 203.307 14.216C203.307 13.64 202.947 12.848 202.155 12.2C201.363 11.552 200.115 11.024 198.315 11.024C194.763 11.024 192.195 13.592 192.195 17.144ZM204.524 17.144C204.524 20.84 207.02 23.336 210.74 23.336C214.46 23.336 217.004 20.84 217.004 17.192C217.004 13.544 214.484 11.024 210.788 11.024C207.068 11.024 204.524 13.544 204.524 17.144ZM214.004 17.192C214.004 19.184 212.636 20.672 210.764 20.672C208.868 20.672 207.5 19.184 207.5 17.144C207.5 15.128 208.868 13.664 210.764 13.664C212.66 13.664 214.004 15.128 214.004 17.192ZM228.768 11.168H228.408C227.544 11.168 226.944 11.576 226.944 12.8V18.944C226.44 19.856 225.552 20.48 224.4 20.48C223.008 20.48 222.192 19.544 222.192 17.96V12.8C222.192 11.552 221.568 11.168 220.68 11.168H220.296C219.456 11.168 218.832 11.576 218.832 12.8V18.464C218.832 21.176 220.104 23.312 223.152 23.312C225 23.312 226.2 22.4 227.016 21.176C227.04 21.44 227.088 21.632 227.136 21.824C227.52 22.832 228.312 23.096 229.032 23.096C229.704 23.096 230.304 22.832 230.304 22.712V12.8C230.304 11.552 229.68 11.168 228.768 11.168ZM239.042 11.024C237.578 11.024 236.594 11.864 236.138 13.256C236.09 12.944 236.042 12.656 235.97 12.44C235.586 11.456 234.818 11.168 234.122 11.168C233.426 11.168 232.85 11.432 232.85 11.552V21.488C232.85 22.736 233.474 23.096 234.386 23.096H234.746C235.61 23.096 236.234 22.712 236.234 21.488V17.984C236.234 15.632 236.954 14.192 238.586 14.192C239.234 14.192 239.762 14.456 240.122 14.768C240.17 14.816 241.202 14.336 241.202 12.992C241.202 11.792 240.386 11.024 239.042 11.024ZM242.888 22.376C243.728 22.904 245.072 23.264 246.92 23.264C250.208 23.264 252.08 21.848 252.08 19.496C252.08 16.856 249.44 16.328 247.784 15.968C246.2 15.608 245.288 15.44 245.288 14.6C245.288 13.856 245.984 13.376 247.28 13.376C248.648 13.376 249.92 14.048 250.712 14.96C250.76 15.032 251.792 14.432 251.792 13.544C251.792 13.208 251.696 12.872 251.504 12.584C250.904 11.672 249.44 11.024 247.064 11.024C244.04 11.024 242.192 12.536 242.192 14.816C242.192 17.456 244.688 17.984 246.296 18.32C247.856 18.656 248.792 18.824 248.792 19.736C248.792 20.48 248.072 20.936 246.752 20.936C245.024 20.936 243.68 20.24 242.888 19.352C242.792 19.28 241.856 19.832 241.856 20.696C241.856 21.344 242.216 21.92 242.888 22.376ZM253.438 17.24C253.438 20.96 255.934 23.336 259.75 23.336C261.382 23.336 262.63 22.976 263.494 22.448C264.334 21.944 264.79 21.272 264.79 20.624C264.79 19.28 263.158 19.136 263.134 19.184C262.606 20.12 261.598 20.888 259.846 20.888C258.118 20.888 256.846 19.904 256.486 18.368L256.414 17.984H264.526C265.15 17.984 265.318 17.672 265.342 17.096V16.88C265.342 13.448 262.99 11.024 259.51 11.024C255.982 11.024 253.438 13.664 253.438 17.24ZM262.222 16.136H256.462C256.678 14.504 257.878 13.352 259.486 13.352C261.094 13.352 262.126 14.432 262.222 16.136ZM270.711 17.144C270.711 20.84 273.207 23.336 276.927 23.336C280.647 23.336 283.191 20.84 283.191 17.192C283.191 13.544 280.671 11.024 276.975 11.024C273.255 11.024 270.711 13.544 270.711 17.144ZM280.191 17.192C280.191 19.184 278.823 20.672 276.951 20.672C275.055 20.672 273.687 19.184 273.687 17.144C273.687 15.128 275.055 13.664 276.951 13.664C278.847 13.664 280.191 15.128 280.191 17.192ZM286.34 21.488C286.34 22.712 287.012 23.096 287.876 23.096H288.236C289.124 23.096 289.724 22.736 289.724 21.488V13.928H291.116C292.1 13.928 292.532 13.52 292.532 12.728V12.536C292.532 11.72 292.1 11.288 291.116 11.288H289.604V10.664C289.604 9.32 290.06 8.768 291.044 8.768C291.716 8.768 292.316 9.08 292.652 9.392C292.7 9.464 293.372 8.84 293.372 8.024C293.372 7.568 293.18 7.136 292.748 6.8C292.268 6.44 291.5 6.176 290.396 6.176C287.972 6.176 286.364 7.424 286.364 10.664V11.288H285.404C284.42 11.288 283.988 11.696 283.988 12.464V12.68C283.988 13.496 284.42 13.928 285.404 13.928H286.34V21.488ZM297.078 17.144C297.078 20.84 299.574 23.336 303.294 23.336C307.014 23.336 309.558 20.84 309.558 17.192C309.558 13.544 307.038 11.024 303.342 11.024C299.622 11.024 297.078 13.544 297.078 17.144ZM306.558 17.192C306.558 19.184 305.19 20.672 303.318 20.672C301.422 20.672 300.054 19.184 300.054 17.144C300.054 15.128 301.422 13.664 303.318 13.664C305.214 13.664 306.558 15.128 306.558 17.192ZM321.323 11.168H320.963C320.099 11.168 319.499 11.576 319.499 12.8V18.944C318.995 19.856 318.107 20.48 316.955 20.48C315.563 20.48 314.747 19.544 314.747 17.96V12.8C314.747 11.552 314.123 11.168 313.235 11.168H312.851C312.011 11.168 311.387 11.576 311.387 12.8V18.464C311.387 21.176 312.659 23.312 315.707 23.312C317.555 23.312 318.755 22.4 319.571 21.176C319.595 21.44 319.643 21.632 319.691 21.824C320.075 22.832 320.867 23.096 321.587 23.096C322.259 23.096 322.859 22.832 322.859 22.712V12.8C322.859 11.552 322.235 11.168 321.323 11.168ZM331.597 11.024C330.133 11.024 329.149 11.864 328.693 13.256C328.645 12.944 328.597 12.656 328.525 12.44C328.141 11.456 327.373 11.168 326.677 11.168C325.981 11.168 325.405 11.432 325.405 11.552V21.488C325.405 22.736 326.029 23.096 326.941 23.096H327.301C328.165 23.096 328.789 22.712 328.789 21.488V17.984C328.789 15.632 329.509 14.192 331.141 14.192C331.789 14.192 332.317 14.456 332.677 14.768C332.725 14.816 333.757 14.336 333.757 12.992C333.757 11.792 332.941 11.024 331.597 11.024ZM119.563 47.24C119.563 50.96 122.059 53.336 125.875 53.336C127.507 53.336 128.755 52.976 129.619 52.448C130.459 51.944 130.915 51.272 130.915 50.624C130.915 49.28 129.283 49.136 129.259 49.184C128.731 50.12 127.723 50.888 125.971 50.888C124.243 50.888 122.971 49.904 122.611 48.368L122.539 47.984H130.651C131.275 47.984 131.443 47.672 131.467 47.096V46.88C131.467 43.448 129.115 41.024 125.635 41.024C122.107 41.024 119.563 43.664 119.563 47.24ZM128.347 46.136H122.587C122.803 44.504 124.003 43.352 125.611 43.352C127.219 43.352 128.251 44.432 128.347 46.136ZM134.582 51.488C134.582 52.712 135.254 53.096 136.118 53.096H136.478C137.366 53.096 137.966 52.736 137.966 51.488V43.928H139.358C140.342 43.928 140.774 43.52 140.774 42.728V42.536C140.774 41.72 140.342 41.288 139.358 41.288H137.846V40.664C137.846 39.32 138.302 38.768 139.286 38.768C139.958 38.768 140.558 39.08 140.894 39.392C140.942 39.464 141.614 38.84 141.614 38.024C141.614 37.568 141.422 37.136 140.99 36.8C140.51 36.44 139.742 36.176 138.638 36.176C136.214 36.176 134.606 37.424 134.606 40.664V41.288H133.646C132.662 41.288 132.23 41.696 132.23 42.464V42.68C132.23 43.496 132.662 43.928 133.646 43.928H134.582V51.488ZM143.726 51.488C143.726 52.712 144.398 53.096 145.262 53.096H145.622C146.51 53.096 147.11 52.736 147.11 51.488V43.928H148.502C149.486 43.928 149.918 43.52 149.918 42.728V42.536C149.918 41.72 149.486 41.288 148.502 41.288H146.99V40.664C146.99 39.32 147.446 38.768 148.43 38.768C149.102 38.768 149.702 39.08 150.038 39.392C150.086 39.464 150.758 38.84 150.758 38.024C150.758 37.568 150.566 37.136 150.134 36.8C149.654 36.44 148.886 36.176 147.782 36.176C145.358 36.176 143.75 37.424 143.75 40.664V41.288H142.79C141.806 41.288 141.374 41.696 141.374 42.464V42.68C141.374 43.496 141.806 43.928 142.79 43.928H143.726V51.488ZM150.453 47.144C150.453 50.84 152.949 53.336 156.669 53.336C160.389 53.336 162.933 50.84 162.933 47.192C162.933 43.544 160.413 41.024 156.717 41.024C152.997 41.024 150.453 43.544 150.453 47.144ZM159.933 47.192C159.933 49.184 158.565 50.672 156.693 50.672C154.797 50.672 153.429 49.184 153.429 47.144C153.429 45.128 154.797 43.664 156.693 43.664C158.589 43.664 159.933 45.128 159.933 47.192ZM171.05 41.024C169.586 41.024 168.602 41.864 168.146 43.256C168.098 42.944 168.05 42.656 167.978 42.44C167.594 41.456 166.826 41.168 166.13 41.168C165.434 41.168 164.858 41.432 164.858 41.552V51.488C164.858 52.736 165.482 53.096 166.394 53.096H166.754C167.618 53.096 168.242 52.712 168.242 51.488V47.984C168.242 45.632 168.962 44.192 170.594 44.192C171.242 44.192 171.77 44.456 172.13 44.768C172.178 44.816 173.21 44.336 173.21 42.992C173.21 41.792 172.394 41.024 171.05 41.024ZM179.619 53.336C180.747 53.336 181.611 53 182.139 52.472C182.523 52.112 182.715 51.68 182.715 51.176C182.715 50.288 181.995 49.808 181.875 49.856C181.563 50.312 181.083 50.648 180.411 50.648C179.475 50.648 179.115 50.072 179.115 48.92V43.928H181.179C182.139 43.928 182.571 43.496 182.571 42.68V42.464C182.571 41.696 182.163 41.288 181.203 41.288H179.163V39.8C179.163 38.552 178.563 38.168 177.675 38.168H177.363C176.403 38.168 175.851 38.696 175.851 39.8V41.288H175.227C174.291 41.288 173.859 41.744 173.859 42.536V42.728C173.859 43.496 174.291 43.928 175.251 43.928H175.851V49.304C175.851 51.968 177.051 53.336 179.619 53.336ZM184.669 52.376C185.509 52.904 186.853 53.264 188.701 53.264C191.989 53.264 193.861 51.848 193.861 49.496C193.861 46.856 191.221 46.328 189.565 45.968C187.981 45.608 187.069 45.44 187.069 44.6C187.069 43.856 187.765 43.376 189.061 43.376C190.429 43.376 191.701 44.048 192.493 44.96C192.541 45.032 193.573 44.432 193.573 43.544C193.573 43.208 193.477 42.872 193.285 42.584C192.685 41.672 191.221 41.024 188.845 41.024C185.821 41.024 183.973 42.536 183.973 44.816C183.973 47.456 186.469 47.984 188.077 48.32C189.637 48.656 190.573 48.824 190.573 49.736C190.573 50.48 189.853 50.936 188.533 50.936C186.805 50.936 185.461 50.24 184.669 49.352C184.573 49.28 183.637 49.832 183.637 50.696C183.637 51.344 183.997 51.92 184.669 52.376ZM195.139 54.872C194.923 55.856 196.291 56.264 196.843 55.64L198.763 53C199.339 52.328 199.531 51.776 199.531 51.2V51.056C199.531 50.048 199.027 49.568 198.163 49.568H197.827C196.723 49.568 196.459 50.072 196.219 51.056L195.139 54.872ZM209.482 53.144C210.61 53.144 211.114 52.904 211.402 52.016L213.322 46.088L215.218 52.016C215.53 52.928 215.962 53.144 217.162 53.144C218.002 53.144 218.77 52.952 218.986 52.16L221.962 42.152C222.01 41.96 220.93 41.144 219.97 41.144C219.322 41.144 218.578 41.48 218.386 42.632L216.97 49.496L215.194 43.544C215.002 42.8 214.378 42.44 213.418 42.44C212.458 42.44 211.81 42.8 211.618 43.544L209.722 49.64L208.282 42.632C208.066 41.48 207.322 41.144 206.65 41.144C205.714 41.144 204.538 41.936 204.61 42.152L207.634 52.16C207.898 52.952 208.642 53.144 209.482 53.144ZM222.992 47.24C222.992 50.96 225.488 53.336 229.304 53.336C230.936 53.336 232.184 52.976 233.048 52.448C233.888 51.944 234.344 51.272 234.344 50.624C234.344 49.28 232.712 49.136 232.688 49.184C232.16 50.12 231.152 50.888 229.4 50.888C227.672 50.888 226.4 49.904 226.04 48.368L225.968 47.984H234.08C234.704 47.984 234.872 47.672 234.896 47.096V46.88C234.896 43.448 232.544 41.024 229.064 41.024C225.536 41.024 222.992 43.664 222.992 47.24ZM231.776 46.136H226.016C226.232 44.504 227.432 43.352 229.04 43.352C230.648 43.352 231.68 44.432 231.776 46.136ZM247.994 41.024C246.218 41.024 245.066 41.864 244.25 43.136V39.032C244.25 36.848 243.122 36.32 242.138 36.32C241.442 36.32 240.866 36.608 240.866 36.704V51.488C240.866 52.736 241.49 53.096 242.378 53.096H242.738C243.602 53.096 244.25 52.712 244.25 51.488V46.592C244.25 44.888 245.234 43.856 246.818 43.856C248.162 43.856 248.978 44.816 248.978 46.424V51.488C248.978 52.736 249.602 53.096 250.49 53.096H250.85C251.714 53.096 252.362 52.712 252.362 51.488V45.968C252.362 43.232 251.066 41.024 247.994 41.024ZM254.188 49.904C254.188 51.92 255.676 53.264 258.124 53.264C259.876 53.264 261.364 52.52 262.18 51.248C262.228 51.56 262.3 51.824 262.372 52.04C262.684 52.832 263.332 53.168 264.148 53.168C264.796 53.168 265.42 52.952 265.42 52.784V45.872C265.42 42.728 263.62 41.024 259.9 41.024C257.644 41.024 256.132 41.576 255.34 42.392C254.86 42.848 254.62 43.4 254.62 43.928C254.62 45.488 256.78 45.32 256.804 45.272C257.212 44.384 258.076 43.568 259.684 43.568C261.172 43.568 262.012 44.312 262.06 45.68C262.084 45.776 262.084 45.896 262.084 46.016H261.7C256.732 46.088 254.188 47.288 254.188 49.904ZM262.084 48.56C262.06 50.048 260.86 51.08 259.18 51.08C258.052 51.08 257.356 50.528 257.356 49.64C257.356 48.32 258.772 47.816 261.436 47.72H262.084V48.56ZM270.824 52.28C271.112 52.976 271.928 53.144 272.72 53.144C273.488 53.144 274.328 52.952 274.616 52.256L278.816 42.152C278.888 41.96 278.024 41.144 276.992 41.144C276.272 41.144 275.576 41.528 275.144 42.896L272.696 49.784L270.344 42.896C269.912 41.528 269.24 41.144 268.424 41.144C267.416 41.144 266.528 41.96 266.576 42.152L270.824 52.28ZM279.43 47.24C279.43 50.96 281.926 53.336 285.742 53.336C287.374 53.336 288.622 52.976 289.486 52.448C290.326 51.944 290.782 51.272 290.782 50.624C290.782 49.28 289.15 49.136 289.126 49.184C288.598 50.12 287.59 50.888 285.838 50.888C284.11 50.888 282.838 49.904 282.478 48.368L282.406 47.984H290.518C291.142 47.984 291.31 47.672 291.334 47.096V46.88C291.334 43.448 288.982 41.024 285.502 41.024C281.974 41.024 279.43 43.664 279.43 47.24ZM288.214 46.136H282.454C282.67 44.504 283.87 43.352 285.478 43.352C287.086 43.352 288.118 44.432 288.214 46.136ZM292.985 51.584C292.985 52.64 293.537 53.192 294.593 53.192H295.001C296.081 53.192 296.633 52.64 296.633 51.584V51.248C296.633 50.192 296.105 49.64 295.001 49.64H294.593C293.513 49.64 292.985 50.192 292.985 51.248V51.584ZM298.704 51.584C298.704 52.64 299.256 53.192 300.312 53.192H300.72C301.8 53.192 302.352 52.64 302.352 51.584V51.248C302.352 50.192 301.824 49.64 300.72 49.64H300.312C299.232 49.64 298.704 50.192 298.704 51.248V51.584ZM304.423 51.584C304.423 52.64 304.975 53.192 306.031 53.192H306.439C307.519 53.192 308.071 52.64 308.071 51.584V51.248C308.071 50.192 307.543 49.64 306.439 49.64H306.031C304.951 49.64 304.423 50.192 304.423 51.248V51.584Z" fill="#7055FD"/>
<path d="M137.182 114.216C138.874 114.216 139.63 113.856 140.062 112.524L142.942 103.632L145.786 112.524C146.254 113.892 146.902 114.216 148.702 114.216C149.962 114.216 151.114 113.928 151.438 112.74L155.902 97.728C155.974 97.44 154.354 96.216 152.914 96.216C151.942 96.216 150.826 96.72 150.538 98.448L148.414 108.744L145.75 99.816C145.462 98.7 144.526 98.16 143.086 98.16C141.646 98.16 140.674 98.7 140.386 99.816L137.542 108.96L135.382 98.448C135.058 96.72 133.942 96.216 132.934 96.216C131.53 96.216 129.766 97.404 129.874 97.728L134.41 112.74C134.806 113.928 135.922 114.216 137.182 114.216ZM157.447 105.216C157.447 110.76 161.191 114.504 166.771 114.504C172.351 114.504 176.167 110.76 176.167 105.288C176.167 99.816 172.387 96.036 166.843 96.036C161.263 96.036 157.447 99.816 157.447 105.216ZM171.667 105.288C171.667 108.276 169.615 110.508 166.807 110.508C163.963 110.508 161.911 108.276 161.911 105.216C161.911 102.192 163.963 99.996 166.807 99.996C169.651 99.996 171.667 102.192 171.667 105.288ZM188.342 96.036C186.146 96.036 184.67 97.296 183.986 99.384C183.914 98.916 183.842 98.484 183.734 98.16C183.158 96.684 182.006 96.252 180.962 96.252C179.918 96.252 179.054 96.648 179.054 96.828V111.732C179.054 113.604 179.99 114.144 181.358 114.144H181.898C183.194 114.144 184.13 113.568 184.13 111.732V106.476C184.13 102.948 185.21 100.788 187.658 100.788C188.63 100.788 189.422 101.184 189.962 101.652C190.034 101.724 191.582 101.004 191.582 98.988C191.582 97.188 190.358 96.036 188.342 96.036ZM193.926 111.732C193.926 113.604 194.898 114.144 196.23 114.144H196.77C198.066 114.144 199.002 113.568 199.002 111.732V106.116L204.51 112.596C205.374 113.82 206.382 114.216 207.354 114.216C208.974 114.216 210.27 112.776 210.162 112.488L203.754 104.82L209.406 97.944C209.55 97.692 208.326 96.216 206.706 96.216C205.806 96.216 204.726 96.648 203.898 97.836L199.002 103.884V93.048C199.002 89.772 197.346 88.98 195.87 88.98C194.826 88.98 193.926 89.412 193.926 89.556V111.732ZM211.447 105.36C211.447 110.94 215.191 114.504 220.915 114.504C223.363 114.504 225.235 113.964 226.531 113.172C227.791 112.416 228.475 111.408 228.475 110.436C228.475 108.42 226.027 108.204 225.991 108.276C225.199 109.68 223.687 110.832 221.059 110.832C218.467 110.832 216.559 109.356 216.019 107.052L215.911 106.476H228.079C229.015 106.476 229.267 106.008 229.303 105.144V104.82C229.303 99.672 225.775 96.036 220.555 96.036C215.263 96.036 211.447 99.996 211.447 105.36ZM224.623 103.704H215.983C216.307 101.256 218.107 99.528 220.519 99.528C222.931 99.528 224.479 101.148 224.623 103.704ZM239.304 114.504C241.896 114.504 243.84 113.208 245.028 111.156C245.028 111.588 245.064 111.984 245.1 112.38C245.28 113.748 246.144 114.144 247.296 114.144H247.8C249.132 114.144 250.032 113.568 250.032 111.732V93.048C250.032 89.772 248.376 88.98 246.864 88.98C245.856 88.98 244.956 89.412 244.956 89.556V98.7C243.948 97.188 241.932 96.036 239.412 96.036C234.552 96.036 231.24 99.672 231.24 105.252C231.24 110.76 234.552 114.504 239.304 114.504ZM244.992 106.224C244.992 108.744 242.976 110.436 240.564 110.436C237.936 110.436 236.064 108.312 236.064 105.252C236.064 102.084 237.9 100.104 240.636 100.104C242.796 100.104 244.236 101.184 244.992 102.912V106.224ZM259.084 105.216C259.084 110.76 262.828 114.504 268.408 114.504C273.988 114.504 277.804 110.76 277.804 105.288C277.804 99.816 274.024 96.036 268.48 96.036C262.9 96.036 259.084 99.816 259.084 105.216ZM273.304 105.288C273.304 108.276 271.252 110.508 268.444 110.508C265.6 110.508 263.548 108.276 263.548 105.216C263.548 102.192 265.6 99.996 268.444 99.996C271.288 99.996 273.304 102.192 273.304 105.288ZM291.419 96.036C288.719 96.036 286.883 97.332 285.623 99.204C285.335 96.936 283.967 96.252 282.599 96.252C281.591 96.252 280.691 96.648 280.691 96.828V111.732C280.691 113.604 281.627 114.144 282.995 114.144H283.535C284.831 114.144 285.767 113.568 285.767 111.732V102.588C286.487 101.22 287.855 100.284 289.619 100.284C291.671 100.284 292.859 101.724 292.859 104.064V111.732C292.859 113.604 293.795 114.144 295.127 114.144H295.667C296.963 114.144 297.935 113.568 297.935 111.732V103.272C297.935 99.276 295.991 96.036 291.419 96.036Z" fill="black"/>
<path d="M152.437 618.504C155.029 618.504 156.973 617.208 158.161 615.156C158.161 615.588 158.197 615.984 158.233 616.38C158.413 617.748 159.277 618.144 160.429 618.144H160.933C162.265 618.144 163.165 617.568 163.165 615.732V597.048C163.165 593.772 161.509 592.98 159.997 592.98C158.989 592.98 158.089 593.412 158.089 593.556V602.7C157.081 601.188 155.065 600.036 152.545 600.036C147.685 600.036 144.373 603.672 144.373 609.252C144.373 614.76 147.685 618.504 152.437 618.504ZM158.125 610.224C158.125 612.744 156.109 614.436 153.697 614.436C151.069 614.436 149.197 612.312 149.197 609.252C149.197 606.084 151.033 604.104 153.769 604.104C155.929 604.104 157.369 605.184 158.125 606.912V610.224ZM166.1 609.216C166.1 614.76 169.844 618.504 175.424 618.504C181.004 618.504 184.82 614.76 184.82 609.288C184.82 603.816 181.04 600.036 175.496 600.036C169.916 600.036 166.1 603.816 166.1 609.216ZM180.32 609.288C180.32 612.276 178.268 614.508 175.46 614.508C172.616 614.508 170.564 612.276 170.564 609.216C170.564 606.192 172.616 603.996 175.46 603.996C178.304 603.996 180.32 606.192 180.32 609.288ZM198.435 600.036C195.735 600.036 193.899 601.332 192.639 603.204C192.351 600.936 190.983 600.252 189.615 600.252C188.607 600.252 187.707 600.648 187.707 600.828V615.732C187.707 617.604 188.643 618.144 190.011 618.144H190.551C191.847 618.144 192.783 617.568 192.783 615.732V606.588C193.503 605.22 194.871 604.284 196.635 604.284C198.687 604.284 199.875 605.724 199.875 608.064V615.732C199.875 617.604 200.811 618.144 202.143 618.144H202.683C203.979 618.144 204.951 617.568 204.951 615.732V607.272C204.951 603.276 203.007 600.036 198.435 600.036ZM207.69 613.356C207.69 616.38 209.922 618.396 213.594 618.396C216.222 618.396 218.454 617.28 219.678 615.372C219.75 615.84 219.858 616.236 219.966 616.56C220.434 617.748 221.406 618.252 222.63 618.252C223.602 618.252 224.538 617.928 224.538 617.676V607.308C224.538 602.592 221.838 600.036 216.258 600.036C212.874 600.036 210.606 600.864 209.418 602.088C208.698 602.772 208.338 603.6 208.338 604.392C208.338 606.732 211.578 606.48 211.614 606.408C212.226 605.076 213.522 603.852 215.934 603.852C218.166 603.852 219.426 604.968 219.498 607.02C219.534 607.164 219.534 607.344 219.534 607.524H218.958C211.506 607.632 207.69 609.432 207.69 613.356ZM219.534 611.34C219.498 613.572 217.698 615.12 215.178 615.12C213.486 615.12 212.442 614.292 212.442 612.96C212.442 610.98 214.566 610.224 218.562 610.08H219.534V611.34ZM235.055 618.504C236.747 618.504 238.043 618 238.835 617.208C239.411 616.668 239.699 616.02 239.699 615.264C239.699 613.932 238.619 613.212 238.439 613.284C237.971 613.968 237.251 614.472 236.243 614.472C234.839 614.472 234.299 613.608 234.299 611.88V604.392H237.395C238.835 604.392 239.483 603.744 239.483 602.52V602.196C239.483 601.044 238.871 600.432 237.431 600.432H234.371V598.2C234.371 596.328 233.471 595.752 232.139 595.752H231.671C230.231 595.752 229.403 596.544 229.403 598.2V600.432H228.467C227.063 600.432 226.415 601.116 226.415 602.304V602.592C226.415 603.744 227.063 604.392 228.503 604.392H229.403V612.456C229.403 616.452 231.203 618.504 235.055 618.504ZM241.123 609.36C241.123 614.94 244.867 618.504 250.591 618.504C253.039 618.504 254.911 617.964 256.207 617.172C257.467 616.416 258.151 615.408 258.151 614.436C258.151 612.42 255.703 612.204 255.667 612.276C254.875 613.68 253.363 614.832 250.735 614.832C248.143 614.832 246.235 613.356 245.695 611.052L245.587 610.476H257.755C258.691 610.476 258.943 610.008 258.979 609.144V608.82C258.979 603.672 255.451 600.036 250.231 600.036C244.939 600.036 241.123 603.996 241.123 609.36ZM254.299 607.704H245.659C245.983 605.256 247.783 603.528 250.195 603.528C252.607 603.528 254.155 605.148 254.299 607.704ZM268.98 618.504C271.572 618.504 273.516 617.208 274.704 615.156C274.704 615.588 274.74 615.984 274.776 616.38C274.956 617.748 275.82 618.144 276.972 618.144H277.476C278.808 618.144 279.708 617.568 279.708 615.732V597.048C279.708 593.772 278.052 592.98 276.54 592.98C275.532 592.98 274.632 593.412 274.632 593.556V602.7C273.624 601.188 271.608 600.036 269.088 600.036C264.228 600.036 260.916 603.672 260.916 609.252C260.916 614.76 264.228 618.504 268.98 618.504ZM274.668 610.224C274.668 612.744 272.652 614.436 270.24 614.436C267.612 614.436 265.74 612.312 265.74 609.252C265.74 606.084 267.576 604.104 270.312 604.104C272.472 604.104 273.912 605.184 274.668 606.912V610.224Z" fill="black"/>
<path d="M108.71 1098.5C111.878 1098.5 114.542 1097.24 116.666 1095.16C117.494 1096.02 118.322 1096.74 119.15 1097.35C119.978 1098.11 120.734 1098.25 121.346 1098.25C123.398 1098.25 124.226 1096.13 124.118 1096.06L119.474 1091.99C120.986 1089.83 122.174 1087.27 122.858 1084.46C122.894 1084.32 122.102 1083.1 120.59 1083.1C119.366 1083.1 118.466 1083.74 117.962 1085.51C117.566 1086.98 117.17 1088.28 116.558 1089.43L111.986 1085.4C115.226 1084.43 117.134 1082.52 117.134 1079.86C117.134 1076.54 114.47 1074.2 110.582 1074.2C106.226 1074.2 103.346 1076.76 103.346 1080.29C103.346 1082.12 104.246 1083.67 105.506 1084.93C102.122 1086.05 99.9976 1088.24 99.9976 1091.45C99.9976 1095.98 103.382 1098.5 108.71 1098.5ZM109.646 1083.67C108.566 1082.66 107.918 1081.69 107.918 1080.36C107.918 1078.85 108.854 1077.7 110.546 1077.7C112.022 1077.7 113.066 1078.78 113.066 1080.25C113.066 1081.8 112.094 1082.92 109.646 1083.67ZM109.142 1094.8C106.478 1094.8 104.606 1093.36 104.606 1090.94C104.606 1088.96 105.866 1087.81 107.738 1087.09L113.894 1092.56C112.634 1093.93 110.978 1094.8 109.142 1094.8ZM129.924 1089.22C129.924 1094.69 133.704 1098.5 139.104 1098.5C141.732 1098.5 143.64 1097.71 144.828 1096.7C146.052 1095.77 146.592 1094.58 146.592 1093.75C146.592 1091.56 143.856 1091.27 143.748 1091.48C143.064 1093.18 141.732 1094.4 139.32 1094.4C136.548 1094.4 134.568 1092.24 134.568 1089.22C134.568 1086.26 136.584 1084.14 139.32 1084.14C141.804 1084.14 143.064 1085.36 143.748 1087.06C143.856 1087.27 146.592 1086.88 146.592 1084.82C146.592 1083.96 146.052 1082.77 144.864 1081.8C143.676 1080.83 141.804 1080.04 139.104 1080.04C133.776 1080.04 129.924 1083.89 129.924 1089.22ZM148.416 1089.22C148.416 1094.76 152.16 1098.5 157.74 1098.5C163.32 1098.5 167.136 1094.76 167.136 1089.29C167.136 1083.82 163.356 1080.04 157.812 1080.04C152.232 1080.04 148.416 1083.82 148.416 1089.22ZM162.636 1089.29C162.636 1092.28 160.584 1094.51 157.776 1094.51C154.932 1094.51 152.88 1092.28 152.88 1089.22C152.88 1086.19 154.932 1084 157.776 1084C160.62 1084 162.636 1086.19 162.636 1089.29ZM180.751 1080.04C178.051 1080.04 176.215 1081.33 174.955 1083.2C174.667 1080.94 173.299 1080.25 171.931 1080.25C170.923 1080.25 170.023 1080.65 170.023 1080.83V1095.73C170.023 1097.6 170.959 1098.14 172.327 1098.14H172.867C174.163 1098.14 175.099 1097.57 175.099 1095.73V1086.59C175.819 1085.22 177.187 1084.28 178.951 1084.28C181.003 1084.28 182.191 1085.72 182.191 1088.06V1095.73C182.191 1097.6 183.127 1098.14 184.459 1098.14H184.999C186.295 1098.14 187.267 1097.57 187.267 1095.73V1087.27C187.267 1083.28 185.323 1080.04 180.751 1080.04ZM198.106 1098.5C199.798 1098.5 201.094 1098 201.886 1097.21C202.462 1096.67 202.75 1096.02 202.75 1095.26C202.75 1093.93 201.67 1093.21 201.49 1093.28C201.022 1093.97 200.302 1094.47 199.294 1094.47C197.89 1094.47 197.35 1093.61 197.35 1091.88V1084.39H200.446C201.886 1084.39 202.534 1083.74 202.534 1082.52V1082.2C202.534 1081.04 201.922 1080.43 200.482 1080.43H197.422V1078.2C197.422 1076.33 196.522 1075.75 195.19 1075.75H194.722C193.282 1075.75 192.454 1076.54 192.454 1078.2V1080.43H191.518C190.114 1080.43 189.466 1081.12 189.466 1082.3V1082.59C189.466 1083.74 190.114 1084.39 191.554 1084.39H192.454V1092.46C192.454 1096.45 194.254 1098.5 198.106 1098.5ZM214.573 1080.04C212.377 1080.04 210.901 1081.3 210.217 1083.38C210.145 1082.92 210.073 1082.48 209.965 1082.16C209.389 1080.68 208.237 1080.25 207.193 1080.25C206.149 1080.25 205.285 1080.65 205.285 1080.83V1095.73C205.285 1097.6 206.221 1098.14 207.589 1098.14H208.129C209.425 1098.14 210.361 1097.57 210.361 1095.73V1090.48C210.361 1086.95 211.441 1084.79 213.889 1084.79C214.861 1084.79 215.653 1085.18 216.193 1085.65C216.265 1085.72 217.813 1085 217.813 1082.99C217.813 1081.19 216.589 1080.04 214.573 1080.04ZM219.976 1075.03C219.976 1076.65 221.092 1077.66 222.82 1077.66C224.62 1077.66 225.664 1076.65 225.664 1075.03C225.664 1073.41 224.584 1072.4 222.82 1072.4C221.056 1072.4 219.976 1073.41 219.976 1075.03ZM220.264 1095.73C220.264 1097.6 221.2 1098.14 222.568 1098.14H223.072C224.404 1098.14 225.34 1097.57 225.34 1095.73V1082.7C225.34 1080.83 224.404 1080.25 223.072 1080.25H222.532C221.236 1080.25 220.264 1080.86 220.264 1082.7V1095.73ZM234.302 1095.37C235.202 1097.1 237.218 1098.5 239.954 1098.5C244.778 1098.5 248.09 1094.69 248.09 1089.22C248.09 1083.6 244.742 1080.04 239.99 1080.04C237.506 1080.04 235.598 1081.12 234.338 1082.92V1077.05C234.338 1073.77 232.682 1072.98 231.206 1072.98C230.162 1072.98 229.262 1073.41 229.262 1073.56V1095.7C229.262 1097.6 230.234 1098.14 231.566 1098.14H232.106C233.186 1098.14 234.014 1097.71 234.194 1096.42L234.302 1095.37ZM243.23 1089.25C243.23 1092.35 241.43 1094.44 238.73 1094.44C236.318 1094.44 234.41 1092.78 234.338 1090.4V1086.98C235.094 1085.22 236.606 1084.1 238.766 1084.1C241.394 1084.1 243.23 1086.16 243.23 1089.25ZM265.748 1080.25H265.208C263.912 1080.25 263.012 1080.86 263.012 1082.7V1091.92C262.256 1093.28 260.924 1094.22 259.196 1094.22C257.108 1094.22 255.884 1092.82 255.884 1090.44V1082.7C255.884 1080.83 254.948 1080.25 253.616 1080.25H253.04C251.78 1080.25 250.844 1080.86 250.844 1082.7V1091.2C250.844 1095.26 252.752 1098.47 257.324 1098.47C260.096 1098.47 261.896 1097.1 263.12 1095.26C263.156 1095.66 263.228 1095.95 263.3 1096.24C263.876 1097.75 265.064 1098.14 266.144 1098.14C267.152 1098.14 268.052 1097.75 268.052 1097.57V1082.7C268.052 1080.83 267.116 1080.25 265.748 1080.25ZM279.071 1098.5C280.763 1098.5 282.059 1098 282.851 1097.21C283.427 1096.67 283.715 1096.02 283.715 1095.26C283.715 1093.93 282.635 1093.21 282.455 1093.28C281.987 1093.97 281.267 1094.47 280.259 1094.47C278.855 1094.47 278.315 1093.61 278.315 1091.88V1084.39H281.411C282.851 1084.39 283.499 1083.74 283.499 1082.52V1082.2C283.499 1081.04 282.887 1080.43 281.447 1080.43H278.387V1078.2C278.387 1076.33 277.487 1075.75 276.155 1075.75H275.687C274.247 1075.75 273.419 1076.54 273.419 1078.2V1080.43H272.483C271.079 1080.43 270.431 1081.12 270.431 1082.3V1082.59C270.431 1083.74 271.079 1084.39 272.519 1084.39H273.419V1092.46C273.419 1096.45 275.219 1098.5 279.071 1098.5ZM285.139 1089.36C285.139 1094.94 288.883 1098.5 294.607 1098.5C297.055 1098.5 298.927 1097.96 300.223 1097.17C301.483 1096.42 302.167 1095.41 302.167 1094.44C302.167 1092.42 299.719 1092.2 299.683 1092.28C298.891 1093.68 297.379 1094.83 294.751 1094.83C292.159 1094.83 290.251 1093.36 289.711 1091.05L289.603 1090.48H301.771C302.707 1090.48 302.959 1090.01 302.995 1089.14V1088.82C302.995 1083.67 299.467 1080.04 294.247 1080.04C288.955 1080.04 285.139 1084 285.139 1089.36ZM298.315 1087.7H289.675C289.999 1085.26 291.799 1083.53 294.211 1083.53C296.623 1083.53 298.171 1085.15 298.315 1087.7ZM312.996 1098.5C315.588 1098.5 317.532 1097.21 318.72 1095.16C318.72 1095.59 318.756 1095.98 318.792 1096.38C318.972 1097.75 319.836 1098.14 320.988 1098.14H321.492C322.824 1098.14 323.724 1097.57 323.724 1095.73V1077.05C323.724 1073.77 322.068 1072.98 320.556 1072.98C319.548 1072.98 318.648 1073.41 318.648 1073.56V1082.7C317.64 1081.19 315.624 1080.04 313.104 1080.04C308.244 1080.04 304.932 1083.67 304.932 1089.25C304.932 1094.76 308.244 1098.5 312.996 1098.5ZM318.684 1090.22C318.684 1092.74 316.668 1094.44 314.256 1094.44C311.628 1094.44 309.756 1092.31 309.756 1089.25C309.756 1086.08 311.592 1084.1 314.328 1084.1C316.488 1084.1 317.928 1085.18 318.684 1086.91V1090.22Z" fill="black"/>
<path d="M53.4038 1433.03C53.4038 1434.65 54.5198 1435.66 56.2478 1435.66C58.0478 1435.66 59.0918 1434.65 59.0918 1433.03C59.0918 1431.41 58.0118 1430.4 56.2478 1430.4C54.4838 1430.4 53.4038 1431.41 53.4038 1433.03ZM53.6918 1453.73C53.6918 1455.6 54.6278 1456.14 55.9958 1456.14H56.4998C57.8318 1456.14 58.7678 1455.57 58.7678 1453.73V1440.7C58.7678 1438.83 57.8318 1438.25 56.4998 1438.25H55.9598C54.6638 1438.25 53.6918 1438.86 53.6918 1440.7V1453.73ZM73.4173 1438.04C70.7173 1438.04 68.8813 1439.33 67.6213 1441.2C67.3333 1438.94 65.9653 1438.25 64.5973 1438.25C63.5893 1438.25 62.6893 1438.65 62.6893 1438.83V1453.73C62.6893 1455.6 63.6253 1456.14 64.9933 1456.14H65.5332C66.8293 1456.14 67.7653 1455.57 67.7653 1453.73V1444.59C68.4853 1443.22 69.8533 1442.28 71.6173 1442.28C73.6693 1442.28 74.8573 1443.72 74.8573 1446.06V1453.73C74.8573 1455.6 75.7933 1456.14 77.1253 1456.14H77.6653C78.9612 1456.14 79.9333 1455.57 79.9333 1453.73V1445.27C79.9333 1441.28 77.9893 1438.04 73.4173 1438.04ZM93.7398 1454.92C94.1718 1455.96 95.3958 1456.22 96.5838 1456.22C97.7358 1456.22 98.9958 1455.93 99.4278 1454.88L105.728 1439.73C105.836 1439.44 104.54 1438.22 102.992 1438.22C101.912 1438.22 100.868 1438.79 100.22 1440.84L96.5478 1451.18L93.0198 1440.84C92.3718 1438.79 91.3638 1438.22 90.1398 1438.22C88.6278 1438.22 87.2958 1439.44 87.3678 1439.73L93.7398 1454.92ZM106.649 1447.22C106.649 1452.76 110.393 1456.5 115.973 1456.5C121.553 1456.5 125.369 1452.76 125.369 1447.29C125.369 1441.82 121.589 1438.04 116.045 1438.04C110.465 1438.04 106.649 1441.82 106.649 1447.22ZM120.869 1447.29C120.869 1450.28 118.817 1452.51 116.009 1452.51C113.165 1452.51 111.113 1450.28 111.113 1447.22C111.113 1444.19 113.165 1442 116.009 1442C118.853 1442 120.869 1444.19 120.869 1447.29ZM130.668 1456.14H131.208C132.504 1456.14 133.44 1455.57 133.44 1453.73V1435.05C133.44 1431.77 131.784 1430.98 130.272 1430.98C129.264 1430.98 128.364 1431.41 128.364 1431.56V1453.73C128.364 1455.6 129.336 1456.14 130.668 1456.14ZM152.156 1438.25H151.616C150.32 1438.25 149.42 1438.86 149.42 1440.7V1449.92C148.664 1451.28 147.332 1452.22 145.604 1452.22C143.516 1452.22 142.292 1450.82 142.292 1448.44V1440.7C142.292 1438.83 141.356 1438.25 140.024 1438.25H139.448C138.188 1438.25 137.252 1438.86 137.252 1440.7V1449.2C137.252 1453.26 139.16 1456.47 143.732 1456.47C146.504 1456.47 148.304 1455.1 149.528 1453.26C149.564 1453.66 149.636 1453.95 149.708 1454.24C150.284 1455.75 151.472 1456.14 152.552 1456.14C153.56 1456.14 154.46 1455.75 154.46 1455.57V1440.7C154.46 1438.83 153.524 1438.25 152.156 1438.25ZM169.007 1438.04C166.307 1438.04 164.471 1439.33 163.211 1441.2C162.923 1438.94 161.555 1438.25 160.187 1438.25C159.179 1438.25 158.279 1438.65 158.279 1438.83V1453.73C158.279 1455.6 159.215 1456.14 160.583 1456.14H161.123C162.419 1456.14 163.355 1455.57 163.355 1453.73V1444.59C164.075 1443.22 165.443 1442.28 167.207 1442.28C169.259 1442.28 170.447 1443.72 170.447 1446.06V1453.73C170.447 1455.6 171.383 1456.14 172.715 1456.14H173.255C174.551 1456.14 175.523 1455.57 175.523 1453.73V1445.27C175.523 1441.28 173.579 1438.04 169.007 1438.04ZM186.362 1456.5C188.054 1456.5 189.35 1456 190.142 1455.21C190.718 1454.67 191.006 1454.02 191.006 1453.26C191.006 1451.93 189.926 1451.21 189.746 1451.28C189.278 1451.97 188.558 1452.47 187.55 1452.47C186.146 1452.47 185.606 1451.61 185.606 1449.88V1442.39H188.702C190.142 1442.39 190.79 1441.74 190.79 1440.52V1440.2C190.79 1439.04 190.178 1438.43 188.738 1438.43H185.678V1436.2C185.678 1434.33 184.778 1433.75 183.446 1433.75H182.978C181.538 1433.75 180.71 1434.54 180.71 1436.2V1438.43H179.774C178.37 1438.43 177.722 1439.12 177.722 1440.3V1440.59C177.722 1441.74 178.37 1442.39 179.81 1442.39H180.71V1450.46C180.71 1454.45 182.51 1456.5 186.362 1456.5ZM192.43 1447.36C192.43 1452.94 196.174 1456.5 201.898 1456.5C204.346 1456.5 206.218 1455.96 207.514 1455.17C208.774 1454.42 209.458 1453.41 209.458 1452.44C209.458 1450.42 207.01 1450.2 206.974 1450.28C206.182 1451.68 204.67 1452.83 202.042 1452.83C199.45 1452.83 197.542 1451.36 197.002 1449.05L196.894 1448.48H209.062C209.998 1448.48 210.25 1448.01 210.286 1447.14V1446.82C210.286 1441.67 206.758 1438.04 201.538 1438.04C196.246 1438.04 192.43 1442 192.43 1447.36ZM205.606 1445.7H196.966C197.29 1443.26 199.09 1441.53 201.502 1441.53C203.914 1441.53 205.462 1443.15 205.606 1445.7ZM212.223 1447.36C212.223 1452.94 215.967 1456.5 221.691 1456.5C224.139 1456.5 226.011 1455.96 227.307 1455.17C228.567 1454.42 229.251 1453.41 229.251 1452.44C229.251 1450.42 226.803 1450.2 226.767 1450.28C225.975 1451.68 224.463 1452.83 221.835 1452.83C219.243 1452.83 217.335 1451.36 216.795 1449.05L216.687 1448.48H228.855C229.791 1448.48 230.043 1448.01 230.079 1447.14V1446.82C230.079 1441.67 226.551 1438.04 221.331 1438.04C216.039 1438.04 212.223 1442 212.223 1447.36ZM225.399 1445.7H216.759C217.083 1443.26 218.883 1441.53 221.295 1441.53C223.707 1441.53 225.255 1443.15 225.399 1445.7ZM242.204 1438.04C240.008 1438.04 238.532 1439.3 237.848 1441.38C237.776 1440.92 237.704 1440.48 237.596 1440.16C237.02 1438.68 235.868 1438.25 234.824 1438.25C233.78 1438.25 232.916 1438.65 232.916 1438.83V1453.73C232.916 1455.6 233.852 1456.14 235.22 1456.14H235.76C237.056 1456.14 237.992 1455.57 237.992 1453.73V1448.48C237.992 1444.95 239.072 1442.79 241.52 1442.79C242.492 1442.79 243.284 1443.18 243.824 1443.65C243.896 1443.72 245.444 1443 245.444 1440.99C245.444 1439.19 244.22 1438.04 242.204 1438.04ZM247.607 1433.03C247.607 1434.65 248.723 1435.66 250.451 1435.66C252.251 1435.66 253.295 1434.65 253.295 1433.03C253.295 1431.41 252.215 1430.4 250.451 1430.4C248.687 1430.4 247.607 1431.41 247.607 1433.03ZM247.895 1453.73C247.895 1455.6 248.831 1456.14 250.199 1456.14H250.703C252.035 1456.14 252.971 1455.57 252.971 1453.73V1440.7C252.971 1438.83 252.035 1438.25 250.703 1438.25H250.163C248.867 1438.25 247.895 1438.86 247.895 1440.7V1453.73ZM267.62 1438.04C264.92 1438.04 263.084 1439.33 261.824 1441.2C261.536 1438.94 260.168 1438.25 258.8 1438.25C257.792 1438.25 256.892 1438.65 256.892 1438.83V1453.73C256.892 1455.6 257.828 1456.14 259.196 1456.14H259.736C261.032 1456.14 261.968 1455.57 261.968 1453.73V1444.59C262.688 1443.22 264.056 1442.28 265.82 1442.28C267.872 1442.28 269.06 1443.72 269.06 1446.06V1453.73C269.06 1455.6 269.996 1456.14 271.328 1456.14H271.868C273.164 1456.14 274.136 1455.57 274.136 1453.73V1445.27C274.136 1441.28 272.192 1438.04 267.62 1438.04ZM284.831 1463.6C290.843 1463.6 294.299 1461.44 294.299 1458.05C294.299 1455.1 291.707 1453.77 289.223 1453.12C286.775 1452.47 285.263 1452.36 285.011 1451.5C284.831 1451.32 284.723 1451.14 284.759 1450.92C285.011 1450.92 285.227 1450.89 285.479 1450.89C290.051 1450.78 293.039 1448.26 293.039 1444.62C293.039 1443.15 292.463 1441.82 291.491 1440.74L294.515 1437.75C294.623 1437.68 293.831 1435.62 292.031 1435.62C290.951 1435.62 290.195 1436.13 289.511 1437.39L288.719 1438.86C287.603 1438.36 286.343 1438.04 284.975 1438.04C280.331 1438.04 276.983 1440.92 276.983 1444.7C276.983 1447.47 278.783 1449.63 281.807 1450.49C281.087 1450.96 280.583 1451.68 280.583 1452.51C280.583 1453.19 280.835 1453.73 281.231 1454.13C278.063 1454.6 275.759 1456.29 275.759 1458.77C275.759 1462.01 278.567 1463.6 284.831 1463.6ZM285.011 1448.01C283.031 1448.01 281.591 1446.64 281.591 1444.62C281.591 1442.61 282.995 1441.28 284.939 1441.28C286.991 1441.28 288.395 1442.61 288.395 1444.62C288.395 1446.64 286.991 1448.01 285.011 1448.01ZM284.939 1460.82C281.951 1460.82 280.439 1460.07 280.439 1458.74C280.439 1457.22 282.419 1456.32 285.011 1456.14C285.587 1456.25 286.127 1456.4 286.631 1456.5C288.287 1456.94 289.547 1457.4 289.547 1458.56C289.547 1460 287.927 1460.82 284.939 1460.82Z" fill="black"/>
<path d="M81.4459 866.504C83.1379 866.504 84.4339 866 85.2259 865.208C85.8019 864.668 86.0899 864.02 86.0899 863.264C86.0899 861.932 85.0099 861.212 84.8299 861.284C84.3619 861.968 83.6419 862.472 82.6339 862.472C81.2299 862.472 80.6899 861.608 80.6899 859.88V852.392H83.7859C85.2259 852.392 85.8739 851.744 85.8739 850.52V850.196C85.8739 849.044 85.2619 848.432 83.8219 848.432H80.7619V846.2C80.7619 844.328 79.8619 843.752 78.5299 843.752H78.0619C76.6219 843.752 75.7939 844.544 75.7939 846.2V848.432H74.8579C73.4539 848.432 72.8059 849.116 72.8059 850.304V850.592C72.8059 851.744 73.4539 852.392 74.8939 852.392H75.7939V860.456C75.7939 864.452 77.5939 866.504 81.4459 866.504ZM87.5139 857.216C87.5139 862.76 91.2579 866.504 96.8379 866.504C102.418 866.504 106.234 862.76 106.234 857.288C106.234 851.816 102.454 848.036 96.9099 848.036C91.3299 848.036 87.5139 851.816 87.5139 857.216ZM101.734 857.288C101.734 860.276 99.6819 862.508 96.8739 862.508C94.0299 862.508 91.9779 860.276 91.9779 857.216C91.9779 854.192 94.0299 851.996 96.8739 851.996C99.7179 851.996 101.734 854.192 101.734 857.288ZM114.338 857.216C114.338 862.688 118.118 866.504 123.518 866.504C126.146 866.504 128.054 865.712 129.242 864.704C130.466 863.768 131.006 862.58 131.006 861.752C131.006 859.556 128.27 859.268 128.162 859.484C127.478 861.176 126.146 862.4 123.734 862.4C120.962 862.4 118.982 860.24 118.982 857.216C118.982 854.264 120.998 852.14 123.734 852.14C126.218 852.14 127.478 853.364 128.162 855.056C128.27 855.272 131.006 854.876 131.006 852.824C131.006 851.96 130.466 850.772 129.278 849.8C128.09 848.828 126.218 848.036 123.518 848.036C118.19 848.036 114.338 851.888 114.338 857.216ZM144.422 848.036C141.758 848.036 140.03 849.296 138.806 851.204V845.048C138.806 841.772 137.114 840.98 135.638 840.98C134.594 840.98 133.73 841.412 133.73 841.556V863.732C133.73 865.604 134.666 866.144 135.998 866.144H136.538C137.834 866.144 138.806 865.568 138.806 863.732V856.388C138.806 853.832 140.282 852.284 142.658 852.284C144.674 852.284 145.898 853.724 145.898 856.136V863.732C145.898 865.604 146.834 866.144 148.166 866.144H148.706C150.002 866.144 150.974 865.568 150.974 863.732V855.452C150.974 851.348 149.03 848.036 144.422 848.036ZM153.713 861.356C153.713 864.38 155.945 866.396 159.617 866.396C162.245 866.396 164.477 865.28 165.701 863.372C165.773 863.84 165.881 864.236 165.989 864.56C166.457 865.748 167.429 866.252 168.653 866.252C169.625 866.252 170.561 865.928 170.561 865.676V855.308C170.561 850.592 167.861 848.036 162.281 848.036C158.897 848.036 156.629 848.864 155.441 850.088C154.721 850.772 154.361 851.6 154.361 852.392C154.361 854.732 157.601 854.48 157.637 854.408C158.249 853.076 159.545 851.852 161.957 851.852C164.189 851.852 165.449 852.968 165.521 855.02C165.557 855.164 165.557 855.344 165.557 855.524H164.981C157.529 855.632 153.713 857.432 153.713 861.356ZM165.557 859.34C165.521 861.572 163.721 863.12 161.201 863.12C159.509 863.12 158.465 862.292 158.465 860.96C158.465 858.98 160.589 858.224 164.585 858.08H165.557V859.34ZM183.483 848.036C181.287 848.036 179.811 849.296 179.127 851.384C179.055 850.916 178.983 850.484 178.875 850.16C178.299 848.684 177.147 848.252 176.103 848.252C175.059 848.252 174.195 848.648 174.195 848.828V863.732C174.195 865.604 175.131 866.144 176.499 866.144H177.039C178.335 866.144 179.271 865.568 179.271 863.732V858.476C179.271 854.948 180.351 852.788 182.799 852.788C183.771 852.788 184.563 853.184 185.103 853.652C185.175 853.724 186.723 853.004 186.723 850.988C186.723 849.188 185.499 848.036 183.483 848.036ZM188.886 843.032C188.886 844.652 190.002 845.66 191.73 845.66C193.53 845.66 194.574 844.652 194.574 843.032C194.574 841.412 193.494 840.404 191.73 840.404C189.966 840.404 188.886 841.412 188.886 843.032ZM189.174 863.732C189.174 865.604 190.11 866.144 191.478 866.144H191.982C193.314 866.144 194.25 865.568 194.25 863.732V850.7C194.25 848.828 193.314 848.252 191.982 848.252H191.442C190.146 848.252 189.174 848.864 189.174 850.7V863.732ZM205.372 866.504C207.064 866.504 208.36 866 209.152 865.208C209.728 864.668 210.016 864.02 210.016 863.264C210.016 861.932 208.936 861.212 208.756 861.284C208.288 861.968 207.568 862.472 206.56 862.472C205.156 862.472 204.616 861.608 204.616 859.88V852.392H207.712C209.152 852.392 209.8 851.744 209.8 850.52V850.196C209.8 849.044 209.188 848.432 207.748 848.432H204.688V846.2C204.688 844.328 203.788 843.752 202.456 843.752H201.988C200.548 843.752 199.72 844.544 199.72 846.2V848.432H198.784C197.38 848.432 196.732 849.116 196.732 850.304V850.592C196.732 851.744 197.38 852.392 198.82 852.392H199.72V860.456C199.72 864.452 201.52 866.504 205.372 866.504ZM212.371 843.032C212.371 844.652 213.487 845.66 215.215 845.66C217.015 845.66 218.059 844.652 218.059 843.032C218.059 841.412 216.979 840.404 215.215 840.404C213.451 840.404 212.371 841.412 212.371 843.032ZM212.659 863.732C212.659 865.604 213.595 866.144 214.963 866.144H215.467C216.799 866.144 217.735 865.568 217.735 863.732V850.7C217.735 848.828 216.799 848.252 215.467 848.252H214.927C213.631 848.252 212.659 848.864 212.659 850.7V863.732ZM220.756 857.36C220.756 862.94 224.5 866.504 230.224 866.504C232.672 866.504 234.544 865.964 235.84 865.172C237.1 864.416 237.784 863.408 237.784 862.436C237.784 860.42 235.336 860.204 235.3 860.276C234.508 861.68 232.996 862.832 230.368 862.832C227.776 862.832 225.868 861.356 225.328 859.052L225.22 858.476H237.388C238.324 858.476 238.576 858.008 238.612 857.144V856.82C238.612 851.672 235.084 848.036 229.864 848.036C224.572 848.036 220.756 851.996 220.756 857.36ZM233.932 855.704H225.292C225.616 853.256 227.416 851.528 229.828 851.528C232.24 851.528 233.788 853.148 233.932 855.704ZM241.845 865.064C243.105 865.856 245.121 866.396 247.893 866.396C252.825 866.396 255.633 864.272 255.633 860.744C255.633 856.784 251.673 855.992 249.189 855.452C246.813 854.912 245.445 854.66 245.445 853.4C245.445 852.284 246.489 851.564 248.433 851.564C250.485 851.564 252.393 852.572 253.581 853.94C253.653 854.048 255.201 853.148 255.201 851.816C255.201 851.312 255.057 850.808 254.769 850.376C253.869 849.008 251.673 848.036 248.109 848.036C243.573 848.036 240.801 850.304 240.801 853.724C240.801 857.684 244.545 858.476 246.957 858.98C249.297 859.484 250.701 859.736 250.701 861.104C250.701 862.22 249.621 862.904 247.641 862.904C245.049 862.904 243.033 861.86 241.845 860.528C241.701 860.42 240.297 861.248 240.297 862.544C240.297 863.516 240.837 864.38 241.845 865.064Z" fill="black"/>
<path d="M98.5305 336.036C95.8305 336.036 93.9945 337.332 92.7345 339.204C92.4465 336.936 91.0785 336.252 89.7105 336.252C88.7025 336.252 87.8025 336.648 87.8025 336.828V351.732C87.8025 353.604 88.7385 354.144 90.1065 354.144H90.6465C91.9425 354.144 92.8785 353.568 92.8785 351.732V342.588C93.5985 341.22 94.9665 340.284 96.7305 340.284C98.7825 340.284 99.9705 341.724 99.9705 344.064V351.732C99.9705 353.604 100.907 354.144 102.239 354.144H102.779C104.075 354.144 105.047 353.568 105.047 351.732V343.272C105.047 339.276 103.103 336.036 98.5305 336.036ZM107.785 345.216C107.785 350.76 111.529 354.504 117.109 354.504C122.689 354.504 126.505 350.76 126.505 345.288C126.505 339.816 122.725 336.036 117.181 336.036C111.601 336.036 107.785 339.816 107.785 345.216ZM122.005 345.288C122.005 348.276 119.953 350.508 117.145 350.508C114.301 350.508 112.249 348.276 112.249 345.216C112.249 342.192 114.301 339.996 117.145 339.996C119.989 339.996 122.005 342.192 122.005 345.288ZM140.12 336.036C137.42 336.036 135.584 337.332 134.324 339.204C134.036 336.936 132.668 336.252 131.3 336.252C130.292 336.252 129.392 336.648 129.392 336.828V351.732C129.392 353.604 130.328 354.144 131.696 354.144H132.236C133.532 354.144 134.468 353.568 134.468 351.732V342.588C135.188 341.22 136.556 340.284 138.32 340.284C140.372 340.284 141.56 341.724 141.56 344.064V351.732C141.56 353.604 142.496 354.144 143.828 354.144H144.368C145.664 354.144 146.636 353.568 146.636 351.732V343.272C146.636 339.276 144.692 336.036 140.12 336.036ZM149.663 345.576C149.663 346.656 150.383 347.52 151.751 347.52H160.319C161.723 347.52 162.407 346.656 162.407 345.576V344.784C162.407 343.74 161.723 342.84 160.319 342.84H151.751C150.383 342.84 149.663 343.74 149.663 344.784V345.576ZM176.331 336.036C173.667 336.036 171.615 337.368 170.571 339.492C170.535 339.204 170.499 338.844 170.463 338.7C170.031 336.792 168.699 336.252 167.547 336.252C166.503 336.252 165.603 336.648 165.603 336.828V358.572C165.603 360.444 166.539 361.02 167.907 361.02H168.447C169.743 361.02 170.679 360.408 170.679 358.572V351.3C171.615 353.064 173.595 354.504 176.295 354.504C181.119 354.504 184.431 350.688 184.431 345.216C184.431 339.6 181.083 336.036 176.331 336.036ZM175.035 350.436C172.659 350.436 170.679 348.744 170.679 346.296V342.984C171.435 341.22 172.947 340.104 175.107 340.104C177.735 340.104 179.571 342.156 179.571 345.252C179.571 348.348 177.771 350.436 175.035 350.436ZM196.618 336.036C194.422 336.036 192.946 337.296 192.262 339.384C192.19 338.916 192.118 338.484 192.01 338.16C191.434 336.684 190.282 336.252 189.238 336.252C188.194 336.252 187.33 336.648 187.33 336.828V351.732C187.33 353.604 188.266 354.144 189.634 354.144H190.174C191.47 354.144 192.406 353.568 192.406 351.732V346.476C192.406 342.948 193.486 340.788 195.934 340.788C196.906 340.788 197.698 341.184 198.238 341.652C198.31 341.724 199.858 341.004 199.858 338.988C199.858 337.188 198.634 336.036 196.618 336.036ZM200.211 345.216C200.211 350.76 203.955 354.504 209.535 354.504C215.115 354.504 218.931 350.76 218.931 345.288C218.931 339.816 215.151 336.036 209.607 336.036C204.027 336.036 200.211 339.816 200.211 345.216ZM214.431 345.288C214.431 348.276 212.379 350.508 209.571 350.508C206.727 350.508 204.675 348.276 204.675 345.216C204.675 342.192 206.727 339.996 209.571 339.996C212.415 339.996 214.431 342.192 214.431 345.288ZM235.354 331.032C235.354 332.652 236.47 333.66 238.198 333.66C239.998 333.66 241.042 332.652 241.042 331.032C241.042 329.412 239.962 328.404 238.198 328.404C236.434 328.404 235.354 329.412 235.354 331.032ZM223.654 351.732C223.654 353.568 224.662 354.144 225.958 354.144H226.498C227.83 354.144 228.73 353.604 228.73 351.732V340.392H230.818C232.294 340.392 232.942 339.78 232.942 338.592V338.304C232.942 337.08 232.294 336.432 230.818 336.432H228.55V335.496C228.55 333.48 229.234 332.652 230.71 332.652C231.718 332.652 232.618 333.12 233.122 333.588C233.194 333.696 234.202 332.76 234.202 331.536C234.202 330.852 233.914 330.204 233.266 329.7C232.546 329.16 231.394 328.764 229.738 328.764C226.102 328.764 223.69 330.636 223.69 335.496V336.432H222.25C220.774 336.432 220.126 337.044 220.126 338.196V338.52C220.126 339.744 220.774 340.392 222.25 340.392H223.654V351.732ZM235.642 351.732C235.642 353.604 236.578 354.144 237.946 354.144H238.45C239.782 354.144 240.718 353.568 240.718 351.732V338.7C240.718 336.828 239.782 336.252 238.45 336.252H237.91C236.614 336.252 235.642 336.864 235.642 338.7V351.732ZM251.835 354.504C253.527 354.504 254.823 354 255.615 353.208C256.191 352.668 256.479 352.02 256.479 351.264C256.479 349.932 255.399 349.212 255.219 349.284C254.751 349.968 254.031 350.472 253.023 350.472C251.619 350.472 251.079 349.608 251.079 347.88V340.392H254.175C255.615 340.392 256.263 339.744 256.263 338.52V338.196C256.263 337.044 255.651 336.432 254.211 336.432H251.151V334.2C251.151 332.328 250.251 331.752 248.919 331.752H248.451C247.011 331.752 246.183 332.544 246.183 334.2V336.432H245.247C243.843 336.432 243.195 337.116 243.195 338.304V338.592C243.195 339.744 243.843 340.392 245.283 340.392H246.183V348.456C246.183 352.452 247.983 354.504 251.835 354.504ZM116.583 381.036C113.919 381.036 111.867 382.368 110.823 384.492C110.787 384.204 110.751 383.844 110.715 383.7C110.283 381.792 108.951 381.252 107.799 381.252C106.755 381.252 105.855 381.648 105.855 381.828V403.572C105.855 405.444 106.791 406.02 108.159 406.02H108.699C109.995 406.02 110.931 405.408 110.931 403.572V396.3C111.867 398.064 113.847 399.504 116.547 399.504C121.371 399.504 124.683 395.688 124.683 390.216C124.683 384.6 121.335 381.036 116.583 381.036ZM115.287 395.436C112.911 395.436 110.931 393.744 110.931 391.296V387.984C111.687 386.22 113.199 385.104 115.359 385.104C117.987 385.104 119.823 387.156 119.823 390.252C119.823 393.348 118.023 395.436 115.287 395.436ZM136.87 381.036C134.674 381.036 133.198 382.296 132.514 384.384C132.442 383.916 132.37 383.484 132.262 383.16C131.686 381.684 130.534 381.252 129.49 381.252C128.446 381.252 127.582 381.648 127.582 381.828V396.732C127.582 398.604 128.518 399.144 129.886 399.144H130.426C131.722 399.144 132.658 398.568 132.658 396.732V391.476C132.658 387.948 133.738 385.788 136.186 385.788C137.158 385.788 137.95 386.184 138.49 386.652C138.562 386.724 140.11 386.004 140.11 383.988C140.11 382.188 138.886 381.036 136.87 381.036ZM140.463 390.216C140.463 395.76 144.207 399.504 149.787 399.504C155.367 399.504 159.183 395.76 159.183 390.288C159.183 384.816 155.403 381.036 149.859 381.036C144.279 381.036 140.463 384.816 140.463 390.216ZM154.683 390.288C154.683 393.276 152.631 395.508 149.823 395.508C146.979 395.508 144.927 393.276 144.927 390.216C144.927 387.192 146.979 384.996 149.823 384.996C152.667 384.996 154.683 387.192 154.683 390.288ZM161.901 376.032C161.901 377.652 163.017 378.66 164.745 378.66C166.545 378.66 167.589 377.652 167.589 376.032C167.589 374.412 166.509 373.404 164.745 373.404C162.981 373.404 161.901 374.412 161.901 376.032ZM157.761 404.868C158.445 405.732 159.705 406.2 161.469 406.2C165.213 406.2 167.229 404.04 167.229 400.188V383.7C167.229 381.828 166.329 381.252 164.961 381.252H164.457C163.125 381.252 162.153 381.864 162.153 383.7V399.936C162.153 401.484 161.613 402.168 160.317 402.168C159.489 402.168 158.769 401.772 158.301 401.268C158.229 401.196 157.257 402.132 157.257 403.356C157.257 403.932 157.437 404.472 157.761 404.868ZM170.276 390.36C170.276 395.94 174.02 399.504 179.744 399.504C182.192 399.504 184.064 398.964 185.36 398.172C186.62 397.416 187.304 396.408 187.304 395.436C187.304 393.42 184.856 393.204 184.82 393.276C184.028 394.68 182.516 395.832 179.888 395.832C177.296 395.832 175.388 394.356 174.848 392.052L174.74 391.476H186.908C187.844 391.476 188.096 391.008 188.132 390.144V389.82C188.132 384.672 184.604 381.036 179.384 381.036C174.092 381.036 170.276 384.996 170.276 390.36ZM183.452 388.704H174.812C175.136 386.256 176.936 384.528 179.348 384.528C181.76 384.528 183.308 386.148 183.452 388.704ZM190.069 390.216C190.069 395.688 193.849 399.504 199.249 399.504C201.877 399.504 203.785 398.712 204.973 397.704C206.197 396.768 206.737 395.58 206.737 394.752C206.737 392.556 204.001 392.268 203.893 392.484C203.209 394.176 201.877 395.4 199.465 395.4C196.693 395.4 194.713 393.24 194.713 390.216C194.713 387.264 196.729 385.14 199.465 385.14C201.949 385.14 203.209 386.364 203.893 388.056C204.001 388.272 206.737 387.876 206.737 385.824C206.737 384.96 206.197 383.772 205.009 382.8C203.821 381.828 201.949 381.036 199.249 381.036C193.921 381.036 190.069 384.888 190.069 390.216ZM216.661 399.504C218.353 399.504 219.649 399 220.441 398.208C221.017 397.668 221.305 397.02 221.305 396.264C221.305 394.932 220.225 394.212 220.045 394.284C219.577 394.968 218.857 395.472 217.849 395.472C216.445 395.472 215.905 394.608 215.905 392.88V385.392H219.001C220.441 385.392 221.089 384.744 221.089 383.52V383.196C221.089 382.044 220.477 381.432 219.037 381.432H215.977V379.2C215.977 377.328 215.077 376.752 213.745 376.752H213.277C211.837 376.752 211.009 377.544 211.009 379.2V381.432H210.073C208.669 381.432 208.021 382.116 208.021 383.304V383.592C208.021 384.744 208.669 385.392 210.109 385.392H211.009V393.456C211.009 397.452 212.809 399.504 216.661 399.504ZM224.236 398.064C225.496 398.856 227.512 399.396 230.284 399.396C235.216 399.396 238.024 397.272 238.024 393.744C238.024 389.784 234.064 388.992 231.58 388.452C229.204 387.912 227.836 387.66 227.836 386.4C227.836 385.284 228.88 384.564 230.824 384.564C232.876 384.564 234.784 385.572 235.972 386.94C236.044 387.048 237.592 386.148 237.592 384.816C237.592 384.312 237.448 383.808 237.16 383.376C236.26 382.008 234.064 381.036 230.5 381.036C225.964 381.036 223.192 383.304 223.192 386.724C223.192 390.684 226.936 391.476 229.348 391.98C231.688 392.484 233.092 392.736 233.092 394.104C233.092 395.22 232.012 395.904 230.032 395.904C227.44 395.904 225.424 394.86 224.236 393.528C224.092 393.42 222.688 394.248 222.688 395.544C222.688 396.516 223.228 397.38 224.236 398.064Z" fill="black"/>
<path d="M148 277.08C180.517 273.246 252.44 267.88 280 277.08" stroke="#FF6B54" stroke-width="6" stroke-linecap="round"/>
<path d="M185.52 283.08C197.116 281.08 226.177 278.28 249.644 283.08" stroke="#FF6B54" stroke-width="6" stroke-linecap="round"/>
<path d="M150 797.044C169.333 791.211 222.4 780.644 280 785.044" stroke="#7055FD" stroke-width="6" stroke-linecap="round"/>
<path d="M300.5 210C337 208.833 417.5 174.7 447.5 47.5" stroke="#FF6B54" stroke-width="6" stroke-linecap="round"/>
<path d="M-35 363C-23.8495 319.217 24.3612 229.321 128 220" stroke="#FF6B54" stroke-width="6" stroke-linecap="round"/>
<path d="M-39 537.019C-3.83333 559.519 96.7 581.419 217.5 489.019C338.3 396.619 506.167 450.519 575 489.019" stroke="#00D3A9" stroke-width="6" stroke-linecap="round"/>
<path d="M-64.5 1011C-18.1667 979.333 98.6 923 195 951C315.5 986 416 1160 622.5 1107" stroke="#FF4D6F" stroke-width="6" stroke-linecap="round"/>
<path d="M279 1376.08C246.483 1372.25 174.56 1366.88 147 1376.08" stroke="#FF4D6F" stroke-width="6" stroke-linecap="round"/>
<path d="M241.48 1382.08C229.884 1380.08 200.823 1377.28 177.356 1382.08" stroke="#FF4D6F" stroke-width="6" stroke-linecap="round"/>
<path d="M173.267 256.2C164.867 256.2 160.667 251.6 160.667 242.4V191.4C158.367 192.7 156.017 193.35 153.617 193.35C149.217 193.35 145.617 191.95 142.817 189.15C140.017 186.15 138.617 182.55 138.617 178.35C138.617 175.35 139.117 172.8 140.117 170.7C141.217 168.5 142.417 166.9 143.717 165.9C145.017 164.8 145.867 164.4 146.267 164.7C149.567 166.6 152.767 167.55 155.867 167.55C159.167 167.55 162.017 166.6 164.417 164.7C166.817 162.7 168.417 160.05 169.217 156.75H177.017C185.817 156.75 190.217 161.35 190.217 170.55V242.4C190.217 251.6 185.817 256.2 177.017 256.2H173.267ZM258.644 256.2C254.644 256.2 251.594 255.05 249.494 252.75C247.494 250.35 246.494 246.9 246.494 242.4V233.85H215.444C210.544 233.85 206.694 232.75 203.894 230.55C201.094 228.25 199.694 225.3 199.694 221.7V217.5C199.694 215.3 200.044 213.2 200.744 211.2C201.444 209.2 202.694 206.7 204.494 203.7L228.194 166.65C229.894 163.75 231.644 161.65 233.444 160.35C235.244 158.95 237.544 158 240.344 157.5C243.144 157 247.194 156.75 252.494 156.75C260.194 156.75 265.644 158.2 268.844 161.1C272.144 163.9 273.794 168.9 273.794 176.1V212.1H277.394C281.994 212.1 285.244 212.9 287.144 214.5C289.144 216 290.144 218.6 290.144 222.3V223.05C290.144 227.05 289.194 229.85 287.294 231.45C285.394 233.05 282.094 233.85 277.394 233.85H273.794V242.4C273.794 251.6 269.594 256.2 261.194 256.2H258.644ZM247.844 212.7V176.7L224.744 212.7H247.844Z" fill="#7055FD"/>
<path d="M87.481 720.88C87.481 728.067 85.4744 733.993 81.461 738.66C77.4477 743.233 71.6144 746.36 63.961 748.04V751.54C63.961 755.927 62.981 759.193 61.021 761.34C59.061 763.487 56.0744 764.56 52.061 764.56H51.361C47.441 764.56 44.4543 763.44 42.401 761.2C40.441 759.053 39.461 755.833 39.461 751.54V748.88C30.3143 747.76 23.641 745.24 19.441 741.32C16.4543 738.52 14.961 735.253 14.961 731.52C14.961 729.373 15.5677 727.32 16.781 725.36C17.9943 723.307 19.301 721.673 20.701 720.46C22.1943 719.247 23.081 718.78 23.361 719.06C26.2543 721.86 30.1743 724.193 35.121 726.06C40.0677 727.833 44.781 728.72 49.261 728.72C56.6344 728.72 60.321 726.48 60.321 722C60.321 720.133 59.2477 718.64 57.101 717.52C54.9544 716.4 51.501 715.373 46.741 714.44C37.6877 712.573 30.4543 709.727 25.041 705.9C19.6277 702.073 16.921 696.007 16.921 687.7C16.921 680.513 18.881 674.773 22.801 670.48C26.8143 666.187 32.4143 663.2 39.601 661.52V657.88C39.601 653.68 40.581 650.507 42.541 648.36C44.5944 646.12 47.581 645 51.501 645H52.201C56.3077 645 59.2944 646.073 61.161 648.22C63.121 650.273 64.101 653.493 64.101 657.88V660.54C70.261 661.38 75.161 662.967 78.801 665.3C83.3744 668.193 85.661 671.973 85.661 676.64C85.661 678.973 85.0077 681.167 83.701 683.22C82.3944 685.273 80.9477 686.953 79.361 688.26C77.8677 689.567 76.981 690.08 76.701 689.8C73.621 687 69.981 684.76 65.781 683.08C61.6744 681.307 57.7543 680.42 54.021 680.42C46.461 680.42 42.681 682.613 42.681 687C42.681 688.96 43.801 690.453 46.041 691.48C48.281 692.507 52.1077 693.58 57.521 694.7C66.3877 696.473 73.5744 699.367 79.081 703.38C84.681 707.3 87.481 713.133 87.481 720.88ZM129.238 751.96C118.318 751.96 109.452 749.907 102.638 745.8C99.4649 743.84 97.0382 741.6 95.3582 739.08C93.7715 736.467 92.9782 733.713 92.9782 730.82C92.9782 726.06 94.5182 722.7 97.5982 720.74C100.772 718.687 103.992 717.66 107.258 717.66C108.752 717.66 109.498 717.8 109.498 718.08C110.712 722.28 112.952 725.453 116.218 727.6C119.578 729.747 123.778 730.82 128.818 730.82C133.205 730.82 136.658 730.027 139.178 728.44C141.698 726.76 142.958 724.473 142.958 721.58C142.958 718.78 142.072 716.727 140.298 715.42C138.618 714.02 135.958 713.32 132.318 713.32H129.658C125.178 713.32 121.912 712.62 119.858 711.22C117.805 709.727 116.778 707.44 116.778 704.36V702.82C116.778 696.66 120.978 693.58 129.378 693.58H134.138C136.565 693.58 138.478 692.973 139.878 691.76C141.372 690.547 142.118 688.867 142.118 686.72C142.118 684.2 140.905 682.193 138.478 680.7C136.052 679.207 132.738 678.46 128.538 678.46C123.125 678.46 119.018 679.627 116.218 681.96C113.512 684.293 111.692 687.187 110.758 690.64C110.758 690.92 110.012 691.06 108.518 691.06C105.345 691.06 102.218 690.08 99.1382 688.12C96.1515 686.067 94.6582 682.66 94.6582 677.9C94.6582 672.02 97.7382 667.167 103.898 663.34C110.245 659.42 118.645 657.46 129.098 657.46C141.792 657.46 151.452 659.653 158.078 664.04C164.705 668.333 168.018 674.587 168.018 682.8C168.018 687.28 166.618 691.107 163.818 694.28C161.112 697.36 157.098 699.693 151.778 701.28C157.472 703.147 161.812 706.04 164.798 709.96C167.878 713.787 169.418 718.407 169.418 723.82C169.418 732.78 165.918 739.733 158.918 744.68C152.012 749.533 142.118 751.96 129.238 751.96ZM218.143 751.96C209.463 751.96 201.949 750.233 195.603 746.78C189.349 743.327 184.543 738.38 181.183 731.94C177.916 725.407 176.283 717.753 176.283 708.98V700.3C176.283 691.62 177.963 684.06 181.323 677.62C184.683 671.18 189.489 666.233 195.743 662.78C202.089 659.233 209.556 657.46 218.143 657.46C226.823 657.46 234.289 659.187 240.543 662.64C246.889 666.093 251.696 671.04 254.963 677.48C258.323 683.92 260.003 691.527 260.003 700.3V708.98C260.003 717.753 258.323 725.36 254.963 731.8C251.696 738.24 246.889 743.233 240.543 746.78C234.289 750.233 226.823 751.96 218.143 751.96ZM218.143 729.42C227.196 729.42 231.723 723.447 231.723 711.5V697.78C231.723 685.74 227.196 679.72 218.143 679.72C213.569 679.72 210.163 681.213 207.923 684.2C205.683 687.093 204.563 691.573 204.563 697.64V711.5C204.563 723.447 209.089 729.42 218.143 729.42ZM269.994 654.52C269.994 653.96 271.067 653.307 273.214 652.56C275.454 651.813 277.834 651.44 280.354 651.44C285.021 651.44 288.941 652.98 292.114 656.06C295.287 659.14 296.874 664.413 296.874 671.88V707.86L310.734 687.7C312.414 684.9 314.514 682.847 317.034 681.54C319.554 680.233 322.121 679.58 324.734 679.58C327.254 679.58 329.634 680.14 331.874 681.26C334.207 682.287 336.074 683.5 337.474 684.9C338.967 686.3 339.574 687.28 339.294 687.84L320.394 714.3L341.114 743C341.394 743.467 340.787 744.4 339.294 745.8C337.801 747.2 335.841 748.46 333.414 749.58C331.081 750.607 328.701 751.12 326.274 751.12C323.474 751.12 320.767 750.467 318.154 749.16C315.634 747.853 313.487 745.753 311.714 742.86L296.874 722.14V737.68C296.874 746.36 292.954 750.7 285.114 750.7H282.314C278.394 750.7 275.361 749.72 273.214 747.76C271.067 745.707 269.994 742.347 269.994 737.68V654.52ZM378.434 750.14C375.634 750.14 373.394 749.253 371.714 747.48C370.034 745.707 369.194 743.047 369.194 739.5V724.24H355.054C351.6 724.24 348.94 723.447 347.074 721.86C345.3 720.18 344.414 717.94 344.414 715.14V713.88C344.414 711.267 345.3 709.12 347.074 707.44C348.94 705.76 351.6 704.92 355.054 704.92H369.194V690.08C369.194 686.627 370.034 684.013 371.714 682.24C373.394 680.373 375.634 679.44 378.434 679.44H380.674C383.287 679.44 385.434 680.373 387.114 682.24C388.887 684.013 389.774 686.627 389.774 690.08V704.92H404.054C407.507 704.92 410.12 705.76 411.894 707.44C413.76 709.12 414.694 711.267 414.694 713.88V715.14C414.694 717.94 413.807 720.18 412.034 721.86C410.26 723.447 407.6 724.24 404.054 724.24H389.774V739.5C389.774 742.953 388.934 745.613 387.254 747.48C385.574 749.253 383.38 750.14 380.674 750.14H378.434Z" fill="#7055FD"/>
<path d="M160.46 1273.16C168.86 1273.16 175.02 1275.87 178.94 1281.28C182.953 1286.6 184.96 1293.37 184.96 1301.58V1331.68C184.96 1340.36 181.04 1344.7 173.2 1344.7H170.4C166.48 1344.7 163.447 1343.72 161.3 1341.76C159.153 1339.71 158.08 1336.35 158.08 1331.68V1305.64C158.08 1302.28 157.287 1299.67 155.7 1297.8C154.207 1295.93 152.107 1295 149.4 1295C146.04 1295 143.427 1295.98 141.56 1297.94C139.787 1299.9 138.9 1302.65 138.9 1306.2V1331.68C138.9 1340.36 134.933 1344.7 127 1344.7H124.2C120.373 1344.7 117.387 1343.72 115.24 1341.76C113.093 1339.71 112.02 1336.35 112.02 1331.68V1248.52C112.02 1247.96 113.093 1247.31 115.24 1246.56C117.48 1245.81 119.86 1245.44 122.38 1245.44C127.047 1245.44 130.967 1246.98 134.14 1250.06C137.313 1253.14 138.9 1258.41 138.9 1265.88V1285.76C143.753 1277.36 150.94 1273.16 160.46 1273.16ZM238.935 1273.16C243.415 1273.16 246.962 1274.47 249.575 1277.08C252.282 1279.69 253.635 1283.19 253.635 1287.58C253.635 1290.85 252.982 1293.55 251.675 1295.7C250.369 1297.85 248.922 1299.43 247.335 1300.46C245.749 1301.49 244.862 1301.91 244.675 1301.72C241.875 1299.29 238.702 1298.08 235.155 1298.08C227.315 1298.08 223.395 1303.77 223.395 1315.16V1331.68C223.395 1340.36 219.429 1344.7 211.495 1344.7H208.695C204.775 1344.7 201.742 1343.72 199.595 1341.76C197.542 1339.8 196.515 1336.44 196.515 1331.68V1276.94C196.515 1276.38 197.589 1275.73 199.735 1274.98C201.882 1274.23 204.215 1273.86 206.735 1273.86C213.362 1273.86 217.982 1276.61 220.595 1282.12C221.062 1282.96 221.575 1284.41 222.135 1286.46C223.255 1282.45 225.262 1279.23 228.155 1276.8C231.142 1274.37 234.735 1273.16 238.935 1273.16ZM263.303 1340.92C258.73 1338.4 256.443 1334.67 256.443 1329.72C256.443 1327.95 256.91 1326.27 257.843 1324.68C258.776 1323.09 259.803 1321.88 260.923 1321.04C262.043 1320.11 262.696 1319.73 262.883 1319.92C265.403 1322.25 268.67 1324.21 272.683 1325.8C276.696 1327.29 280.896 1328.04 285.283 1328.04C287.99 1328.04 290.043 1327.67 291.443 1326.92C292.936 1326.17 293.683 1325.1 293.683 1323.7C293.683 1322.21 292.89 1321.13 291.303 1320.48C289.716 1319.73 286.823 1318.89 282.623 1317.96C278.05 1317.03 274.13 1315.95 270.863 1314.74C267.596 1313.53 264.656 1311.43 262.043 1308.44C259.43 1305.45 258.123 1301.39 258.123 1296.26C258.123 1289.17 260.83 1283.57 266.243 1279.46C271.656 1275.35 279.17 1273.3 288.783 1273.3C296.156 1273.3 302.13 1274.09 306.703 1275.68C311.37 1277.27 314.59 1279.6 316.363 1282.68C317.576 1284.55 318.183 1286.69 318.183 1289.12C318.183 1290.99 317.67 1292.76 316.643 1294.44C315.616 1296.03 314.45 1297.33 313.143 1298.36C311.93 1299.39 311.23 1299.81 311.043 1299.62C308.43 1297.1 305.256 1295 301.523 1293.32C297.79 1291.64 294.196 1290.8 290.743 1290.8C288.13 1290.8 286.123 1291.22 284.723 1292.06C283.323 1292.81 282.623 1293.93 282.623 1295.42C282.623 1296.73 283.323 1297.71 284.723 1298.36C286.123 1298.92 288.456 1299.53 291.723 1300.18L294.523 1300.88C299.283 1301.91 303.296 1303.03 306.563 1304.24C309.923 1305.45 312.956 1307.55 315.663 1310.54C318.463 1313.43 319.863 1317.4 319.863 1322.44C319.863 1329.81 317.063 1335.51 311.463 1339.52C305.956 1343.53 297.93 1345.54 287.383 1345.54C276.65 1345.54 268.623 1344 263.303 1340.92Z" fill="#7055FD"/>
<path d="M135.275 1244.96C124.355 1244.96 115.489 1242.91 108.675 1238.8C105.502 1236.84 103.075 1234.6 101.395 1232.08C99.8086 1229.47 99.0153 1226.71 99.0153 1223.82C99.0153 1219.06 100.555 1215.7 103.635 1213.74C106.809 1211.69 110.029 1210.66 113.295 1210.66C114.789 1210.66 115.535 1210.8 115.535 1211.08C116.749 1215.28 118.989 1218.45 122.255 1220.6C125.615 1222.75 129.815 1223.82 134.855 1223.82C139.242 1223.82 142.695 1223.03 145.215 1221.44C147.735 1219.76 148.995 1217.47 148.995 1214.58C148.995 1211.78 148.109 1209.73 146.335 1208.42C144.655 1207.02 141.995 1206.32 138.355 1206.32H135.695C131.215 1206.32 127.949 1205.62 125.895 1204.22C123.842 1202.73 122.815 1200.44 122.815 1197.36V1195.82C122.815 1189.66 127.015 1186.58 135.415 1186.58H140.175C142.602 1186.58 144.515 1185.97 145.915 1184.76C147.409 1183.55 148.155 1181.87 148.155 1179.72C148.155 1177.2 146.942 1175.19 144.515 1173.7C142.089 1172.21 138.775 1171.46 134.575 1171.46C129.162 1171.46 125.055 1172.63 122.255 1174.96C119.549 1177.29 117.729 1180.19 116.795 1183.64C116.795 1183.92 116.049 1184.06 114.555 1184.06C111.382 1184.06 108.255 1183.08 105.175 1181.12C102.189 1179.07 100.695 1175.66 100.695 1170.9C100.695 1165.02 103.775 1160.17 109.935 1156.34C116.282 1152.42 124.682 1150.46 135.135 1150.46C147.829 1150.46 157.489 1152.65 164.115 1157.04C170.742 1161.33 174.055 1167.59 174.055 1175.8C174.055 1180.28 172.655 1184.11 169.855 1187.28C167.149 1190.36 163.135 1192.69 157.815 1194.28C163.509 1196.15 167.849 1199.04 170.835 1202.96C173.915 1206.79 175.455 1211.41 175.455 1216.82C175.455 1225.78 171.955 1232.73 164.955 1237.68C158.049 1242.53 148.155 1244.96 135.275 1244.96ZM184.84 1147.52C184.84 1146.96 185.913 1146.31 188.06 1145.56C190.3 1144.81 192.68 1144.44 195.2 1144.44C199.866 1144.44 203.786 1145.98 206.96 1149.06C210.133 1152.14 211.72 1157.41 211.72 1164.88V1200.86L225.58 1180.7C227.26 1177.9 229.36 1175.85 231.88 1174.54C234.4 1173.23 236.966 1172.58 239.58 1172.58C242.1 1172.58 244.48 1173.14 246.72 1174.26C249.053 1175.29 250.92 1176.5 252.32 1177.9C253.813 1179.3 254.42 1180.28 254.14 1180.84L235.24 1207.3L255.96 1236C256.24 1236.47 255.633 1237.4 254.14 1238.8C252.646 1240.2 250.686 1241.46 248.26 1242.58C245.926 1243.61 243.546 1244.12 241.12 1244.12C238.32 1244.12 235.613 1243.47 233 1242.16C230.48 1240.85 228.333 1238.75 226.56 1235.86L211.72 1215.14V1230.68C211.72 1239.36 207.8 1243.7 199.96 1243.7H197.16C193.24 1243.7 190.206 1242.72 188.06 1240.76C185.913 1238.71 184.84 1235.35 184.84 1230.68V1147.52ZM293.28 1243.14C290.48 1243.14 288.24 1242.25 286.56 1240.48C284.88 1238.71 284.04 1236.05 284.04 1232.5V1217.24H269.9C266.446 1217.24 263.786 1216.45 261.92 1214.86C260.146 1213.18 259.26 1210.94 259.26 1208.14V1206.88C259.26 1204.27 260.146 1202.12 261.92 1200.44C263.786 1198.76 266.446 1197.92 269.9 1197.92H284.04V1183.08C284.04 1179.63 284.88 1177.01 286.56 1175.24C288.24 1173.37 290.48 1172.44 293.28 1172.44H295.52C298.133 1172.44 300.28 1173.37 301.96 1175.24C303.733 1177.01 304.62 1179.63 304.62 1183.08V1197.92H318.9C322.353 1197.92 324.966 1198.76 326.74 1200.44C328.606 1202.12 329.54 1204.27 329.54 1206.88V1208.14C329.54 1210.94 328.653 1213.18 326.88 1214.86C325.106 1216.45 322.446 1217.24 318.9 1217.24H304.62V1232.5C304.62 1235.95 303.78 1238.61 302.1 1240.48C300.42 1242.25 298.226 1243.14 295.52 1243.14H293.28Z" fill="#7055FD"/>
</g>
<defs>
<clipPath id="clip0_1_25">
<rect width="428" height="1530" fill="white"/>
</clipPath>
</defs>
</svg>
