<svg width="182" height="96" viewBox="0 0 182 96" fill="none" xmlns="http://www.w3.org/2000/svg">
<path fill-rule="evenodd" clip-rule="evenodd" d="M11.9179 26.8707L68.4747 11.9182C71.9453 11.0007 75.5026 13.0703 76.4202 16.5409L88.0499 60.5296C88.9674 64.0002 86.8978 67.5575 83.4272 68.475L26.8703 83.4275C23.3997 84.3451 19.8424 82.2754 18.9249 78.8048L7.29517 34.8161C6.37762 31.3455 8.44727 27.7882 11.9179 26.8707ZM17.4155 47.6651L25.209 77.1434L81.7658 62.1909L73.9727 32.7139L49.4323 54.3294L17.4155 47.6651ZM15.558 40.6391L47.5749 47.3035L72.1152 25.6881L70.1361 18.2023L13.5793 33.1548L15.558 40.6391Z" fill="#7055FD"/>
<path d="M93.7282 28.5368C92.2276 29.2392 91.5805 31.0251 92.2829 32.5257C92.9853 34.0263 94.7712 34.6733 96.2718 33.9709L93.7282 28.5368ZM134 38.7539L131.7 40.6805L134 38.7539ZM163.83 80.1826C162.686 81.3811 162.73 83.28 163.929 84.4241C165.127 85.5681 167.026 85.5239 168.17 84.3254L163.83 80.1826ZM167 70.754C167 69.0971 165.657 67.754 164 67.754C162.343 67.754 161 69.0971 161 70.754H167ZM164 84.254H161C161 85.9109 162.343 87.254 164 87.254V84.254ZM177.5 87.254C179.157 87.254 180.5 85.9109 180.5 84.254C180.5 82.5971 179.157 81.254 177.5 81.254V87.254ZM96.2718 33.9709C99.7921 32.3232 105.938 30.6271 112.587 31.0722C119.152 31.5116 126.12 34.0205 131.7 40.6805L136.3 36.8272C129.48 28.6872 120.864 25.6128 112.988 25.0856C105.196 24.564 98.0413 26.5179 93.7282 28.5368L96.2718 33.9709ZM131.7 40.6805C138.918 49.2952 139.028 56.8024 137.043 60.9618C136.031 63.0817 134.496 64.3715 132.949 64.8642C131.462 65.3376 129.657 65.1794 127.744 63.8128L124.256 68.6952C127.593 71.0786 131.35 71.6703 134.77 70.5813C138.129 69.5114 140.844 66.9262 142.457 63.5461C145.722 56.7054 144.582 46.7125 136.3 36.8272L131.7 40.6805ZM127.744 63.8128C126.536 62.9499 125.803 61.2091 126.548 57.9837C127.283 54.8008 129.363 50.9317 132.52 47.2779C138.92 39.8701 148.623 34.5371 157.82 36.676L159.18 30.832C146.877 27.971 135.08 35.138 127.98 43.3552C124.387 47.5138 121.717 52.2385 120.702 56.6337C119.697 60.9864 120.214 65.8081 124.256 68.6952L127.744 63.8128ZM157.82 36.676C167.707 38.9752 173.727 44.8866 175.25 52.2375C176.793 59.6866 173.926 69.6052 163.83 80.1826L168.17 84.3254C179.074 72.9027 183.207 61.0713 181.125 51.0204C179.023 40.8712 170.793 33.5327 159.18 30.832L157.82 36.676ZM161 70.754V84.254H167V70.754H161ZM164 87.254H177.5V81.254H164V87.254Z" fill="#7055FD"/>
</svg>
