<svg width="101" height="113" viewBox="0 0 101 113" fill="none" xmlns="http://www.w3.org/2000/svg">
<path d="M3.16415 1.05756C1.51142 1.17443 0.266357 2.60896 0.38322 4.26169C0.500084 5.91442 1.93462 7.15948 3.58735 7.04262L3.16415 1.05756ZM48.3296 32.0581L45.4917 33.0308L45.4917 33.0308L48.3296 32.0581ZM66.0524 98.8129C64.5544 99.5208 63.9138 101.309 64.6217 102.807C65.3296 104.305 67.1179 104.946 68.6159 104.238L66.0524 98.8129ZM73.1506 87.3303C73.7455 85.7839 72.9741 84.0481 71.4276 83.4532C69.8812 82.8584 68.1454 83.6298 67.5506 85.1762L73.1506 87.3303ZM63.8871 103.057L61.0871 101.98C60.4923 103.527 61.2637 105.262 62.8101 105.857L63.8871 103.057ZM79.614 112.321C81.1604 112.916 82.8962 112.144 83.491 110.598C84.0859 109.051 83.3144 107.316 81.768 106.721L79.614 112.321ZM3.58735 7.04262C8.90374 6.6667 17.538 7.51821 25.775 11.3362C33.9354 15.1186 41.6303 21.7645 45.4917 33.0308L51.1676 31.0854C46.6802 17.9927 37.6511 10.2277 28.2982 5.89254C19.022 1.59289 9.35373 0.6199 3.16415 1.05756L3.58735 7.04262ZM45.4917 33.0308C50.4409 47.4711 46.9946 57.3167 42.1724 61.8844C39.7289 64.199 36.9397 65.2006 34.4614 65.0545C32.0464 64.9122 29.5969 63.6664 27.709 60.8058L22.7013 64.1107C25.5528 68.4315 29.6682 70.7824 34.1083 71.0442C38.4851 71.3022 42.8413 69.5152 46.2985 66.2405C53.2778 59.6296 56.6542 47.0938 51.1676 31.0854L45.4917 33.0308ZM27.709 60.8058C26.2985 58.6685 26.4382 55.6841 29.0176 51.866C31.5727 48.0841 36.1573 44.1661 41.9344 41.077C53.6051 34.8365 68.6717 32.6837 79.5363 40.048L82.9027 35.0814C69.3993 25.9284 51.7193 29.041 39.1052 35.7859C32.7398 39.1896 27.2974 43.6943 24.0459 48.5072C20.8188 53.284 19.3724 59.0667 22.7013 64.1107L27.709 60.8058ZM79.5363 40.048C90.9865 47.8093 95.9082 58.4044 94.2068 68.7536C92.489 79.202 83.8604 90.3976 66.0524 98.8129L68.6159 104.238C87.4805 95.3231 97.9785 82.7971 100.127 69.727C102.292 56.5578 95.8205 43.8374 82.9027 35.0814L79.5363 40.048ZM67.5506 85.1762L61.0871 101.98L66.6871 104.134L73.1506 87.3303L67.5506 85.1762ZM62.8101 105.857L79.614 112.321L81.768 106.721L64.9641 100.257L62.8101 105.857Z" fill="#BAFBE4"/>
</svg>
